<?xml version="1.0" encoding="utf-8" standalone="no"?>
<!DOCTYPE svg PUBLIC "-//W3C//DTD SVG 1.1//EN"
  "http://www.w3.org/Graphics/SVG/1.1/DTD/svg11.dtd">
<svg xmlns:xlink="http://www.w3.org/1999/xlink" width="460.8pt" height="345.6pt" viewBox="0 0 460.8 345.6" xmlns="http://www.w3.org/2000/svg" version="1.1">
 <metadata>
  <rdf:RDF xmlns:dc="http://purl.org/dc/elements/1.1/" xmlns:cc="http://creativecommons.org/ns#" xmlns:rdf="http://www.w3.org/1999/02/22-rdf-syntax-ns#">
   <cc:Work>
    <dc:type rdf:resource="http://purl.org/dc/dcmitype/StillImage"/>
    <dc:date>2021-11-26T16:25:58.313028</dc:date>
    <dc:format>image/svg+xml</dc:format>
    <dc:creator>
     <cc:Agent>
      <dc:title>Matplotlib v3.5.0, https://matplotlib.org/</dc:title>
     </cc:Agent>
    </dc:creator>
   </cc:Work>
  </rdf:RDF>
 </metadata>
 <defs>
  <style type="text/css">*{stroke-linejoin: round; stroke-linecap: butt}</style>
 </defs>
 <g id="figure_1">
  <g id="patch_1">
   <path d="M 0 345.6 
L 460.8 345.6 
L 460.8 0 
L 0 0 
z
" style="fill: #ffffff"/>
  </g>
  <g id="axes_1">
   <g id="patch_2">
    <path d="M 45.965865 312.24351 
L 457.79976 312.24351 
L 457.79976 3.00024 
L 45.965865 3.00024 
z
" style="fill: #ffffff"/>
   </g>
   <g id="matplotlib.axis_1">
    <g id="xtick_1">
     <g id="line2d_1">
      <defs>
       <path id="m9a8af88a01" d="M 0 0 
L 0 3.5 
" style="stroke: #000000; stroke-width: 0.8"/>
      </defs>
      <g>
       <use xlink:href="#m9a8af88a01" x="64.685587" y="312.24351" style="stroke: #000000; stroke-width: 0.8"/>
      </g>
     </g>
     <g id="text_1">
      <!-- −3 -->
      <g transform="translate(57.314494 326.841947)scale(0.1 -0.1)">
       <defs>
        <path id="DejaVuSans-2212" d="M 678 2272 
L 4684 2272 
L 4684 1741 
L 678 1741 
L 678 2272 
z
" transform="scale(0.015625)"/>
        <path id="DejaVuSans-33" d="M 2597 2516 
Q 3050 2419 3304 2112 
Q 3559 1806 3559 1356 
Q 3559 666 3084 287 
Q 2609 -91 1734 -91 
Q 1441 -91 1130 -33 
Q 819 25 488 141 
L 488 750 
Q 750 597 1062 519 
Q 1375 441 1716 441 
Q 2309 441 2620 675 
Q 2931 909 2931 1356 
Q 2931 1769 2642 2001 
Q 2353 2234 1838 2234 
L 1294 2234 
L 1294 2753 
L 1863 2753 
Q 2328 2753 2575 2939 
Q 2822 3125 2822 3475 
Q 2822 3834 2567 4026 
Q 2313 4219 1838 4219 
Q 1578 4219 1281 4162 
Q 984 4106 628 3988 
L 628 4550 
Q 988 4650 1302 4700 
Q 1616 4750 1894 4750 
Q 2613 4750 3031 4423 
Q 3450 4097 3450 3541 
Q 3450 3153 3228 2886 
Q 3006 2619 2597 2516 
z
" transform="scale(0.015625)"/>
       </defs>
       <use xlink:href="#DejaVuSans-2212"/>
       <use xlink:href="#DejaVuSans-33" x="83.789062"/>
      </g>
     </g>
    </g>
    <g id="xtick_2">
     <g id="line2d_2">
      <g>
       <use xlink:href="#m9a8af88a01" x="127.084663" y="312.24351" style="stroke: #000000; stroke-width: 0.8"/>
      </g>
     </g>
     <g id="text_2">
      <!-- −2 -->
      <g transform="translate(119.713569 326.841947)scale(0.1 -0.1)">
       <defs>
        <path id="DejaVuSans-32" d="M 1228 531 
L 3431 531 
L 3431 0 
L 469 0 
L 469 531 
Q 828 903 1448 1529 
Q 2069 2156 2228 2338 
Q 2531 2678 2651 2914 
Q 2772 3150 2772 3378 
Q 2772 3750 2511 3984 
Q 2250 4219 1831 4219 
Q 1534 4219 1204 4116 
Q 875 4013 500 3803 
L 500 4441 
Q 881 4594 1212 4672 
Q 1544 4750 1819 4750 
Q 2544 4750 2975 4387 
Q 3406 4025 3406 3419 
Q 3406 3131 3298 2873 
Q 3191 2616 2906 2266 
Q 2828 2175 2409 1742 
Q 1991 1309 1228 531 
z
" transform="scale(0.015625)"/>
       </defs>
       <use xlink:href="#DejaVuSans-2212"/>
       <use xlink:href="#DejaVuSans-32" x="83.789062"/>
      </g>
     </g>
    </g>
    <g id="xtick_3">
     <g id="line2d_3">
      <g>
       <use xlink:href="#m9a8af88a01" x="189.483738" y="312.24351" style="stroke: #000000; stroke-width: 0.8"/>
      </g>
     </g>
     <g id="text_3">
      <!-- −1 -->
      <g transform="translate(182.112644 326.841947)scale(0.1 -0.1)">
       <defs>
        <path id="DejaVuSans-31" d="M 794 531 
L 1825 531 
L 1825 4091 
L 703 3866 
L 703 4441 
L 1819 4666 
L 2450 4666 
L 2450 531 
L 3481 531 
L 3481 0 
L 794 0 
L 794 531 
z
" transform="scale(0.015625)"/>
       </defs>
       <use xlink:href="#DejaVuSans-2212"/>
       <use xlink:href="#DejaVuSans-31" x="83.789062"/>
      </g>
     </g>
    </g>
    <g id="xtick_4">
     <g id="line2d_4">
      <g>
       <use xlink:href="#m9a8af88a01" x="251.882812" y="312.24351" style="stroke: #000000; stroke-width: 0.8"/>
      </g>
     </g>
     <g id="text_4">
      <!-- 0 -->
      <g transform="translate(248.701562 326.841947)scale(0.1 -0.1)">
       <defs>
        <path id="DejaVuSans-30" d="M 2034 4250 
Q 1547 4250 1301 3770 
Q 1056 3291 1056 2328 
Q 1056 1369 1301 889 
Q 1547 409 2034 409 
Q 2525 409 2770 889 
Q 3016 1369 3016 2328 
Q 3016 3291 2770 3770 
Q 2525 4250 2034 4250 
z
M 2034 4750 
Q 2819 4750 3233 4129 
Q 3647 3509 3647 2328 
Q 3647 1150 3233 529 
Q 2819 -91 2034 -91 
Q 1250 -91 836 529 
Q 422 1150 422 2328 
Q 422 3509 836 4129 
Q 1250 4750 2034 4750 
z
" transform="scale(0.015625)"/>
       </defs>
       <use xlink:href="#DejaVuSans-30"/>
      </g>
     </g>
    </g>
    <g id="xtick_5">
     <g id="line2d_5">
      <g>
       <use xlink:href="#m9a8af88a01" x="314.281887" y="312.24351" style="stroke: #000000; stroke-width: 0.8"/>
      </g>
     </g>
     <g id="text_5">
      <!-- 1 -->
      <g transform="translate(311.100638 326.841947)scale(0.1 -0.1)">
       <use xlink:href="#DejaVuSans-31"/>
      </g>
     </g>
    </g>
    <g id="xtick_6">
     <g id="line2d_6">
      <g>
       <use xlink:href="#m9a8af88a01" x="376.680962" y="312.24351" style="stroke: #000000; stroke-width: 0.8"/>
      </g>
     </g>
     <g id="text_6">
      <!-- 2 -->
      <g transform="translate(373.499712 326.841947)scale(0.1 -0.1)">
       <use xlink:href="#DejaVuSans-32"/>
      </g>
     </g>
    </g>
    <g id="xtick_7">
     <g id="line2d_7">
      <g>
       <use xlink:href="#m9a8af88a01" x="439.080038" y="312.24351" style="stroke: #000000; stroke-width: 0.8"/>
      </g>
     </g>
     <g id="text_7">
      <!-- 3 -->
      <g transform="translate(435.898788 326.841947)scale(0.1 -0.1)">
       <use xlink:href="#DejaVuSans-33"/>
      </g>
     </g>
    </g>
    <g id="text_8">
     <!-- $x$ ($\sigma$) -->
     <g transform="translate(240.232812 340.520072)scale(0.1 -0.1)">
      <defs>
       <path id="DejaVuSans-Oblique-78" d="M 3841 3500 
L 2234 1784 
L 3219 0 
L 2559 0 
L 1819 1388 
L 531 0 
L -166 0 
L 1556 1844 
L 641 3500 
L 1300 3500 
L 1972 2234 
L 3144 3500 
L 3841 3500 
z
" transform="scale(0.015625)"/>
       <path id="DejaVuSans-20" transform="scale(0.015625)"/>
       <path id="DejaVuSans-28" d="M 1984 4856 
Q 1566 4138 1362 3434 
Q 1159 2731 1159 2009 
Q 1159 1288 1364 580 
Q 1569 -128 1984 -844 
L 1484 -844 
Q 1016 -109 783 600 
Q 550 1309 550 2009 
Q 550 2706 781 3412 
Q 1013 4119 1484 4856 
L 1984 4856 
z
" transform="scale(0.015625)"/>
       <path id="DejaVuSans-Oblique-3c3" d="M 2219 3044 
Q 1744 3044 1422 2700 
Q 1081 2341 969 1747 
Q 844 1119 1044 756 
Q 1241 397 1706 397 
Q 2166 397 2503 759 
Q 2844 1122 2966 1747 
Q 3075 2319 2881 2700 
Q 2700 3044 2219 3044 
z
M 2309 3503 
L 4219 3500 
L 4106 2925 
L 3463 2925 
Q 3706 2438 3575 1747 
Q 3406 888 2884 400 
Q 2359 -91 1609 -91 
Q 856 -91 525 400 
Q 194 888 363 1747 
Q 528 2609 1050 3097 
Q 1484 3503 2309 3503 
z
" transform="scale(0.015625)"/>
       <path id="DejaVuSans-29" d="M 513 4856 
L 1013 4856 
Q 1481 4119 1714 3412 
Q 1947 2706 1947 2009 
Q 1947 1309 1714 600 
Q 1481 -109 1013 -844 
L 513 -844 
Q 928 -128 1133 580 
Q 1338 1288 1338 2009 
Q 1338 2731 1133 3434 
Q 928 4138 513 4856 
z
" transform="scale(0.015625)"/>
      </defs>
      <use xlink:href="#DejaVuSans-Oblique-78" transform="translate(0 0.125)"/>
      <use xlink:href="#DejaVuSans-20" transform="translate(59.179688 0.125)"/>
      <use xlink:href="#DejaVuSans-28" transform="translate(90.966797 0.125)"/>
      <use xlink:href="#DejaVuSans-Oblique-3c3" transform="translate(129.980469 0.125)"/>
      <use xlink:href="#DejaVuSans-29" transform="translate(193.359375 0.125)"/>
     </g>
    </g>
   </g>
   <g id="matplotlib.axis_2">
    <g id="ytick_1">
     <g id="line2d_8">
      <defs>
       <path id="m2d37ba1705" d="M 0 0 
L -3.5 0 
" style="stroke: #000000; stroke-width: 0.8"/>
      </defs>
      <g>
       <use xlink:href="#m2d37ba1705" x="45.965865" y="298.186998" style="stroke: #000000; stroke-width: 0.8"/>
      </g>
     </g>
     <g id="text_9">
      <!-- 0.00 -->
      <g transform="translate(16.70024 301.986216)scale(0.1 -0.1)">
       <defs>
        <path id="DejaVuSans-2e" d="M 684 794 
L 1344 794 
L 1344 0 
L 684 0 
L 684 794 
z
" transform="scale(0.015625)"/>
       </defs>
       <use xlink:href="#DejaVuSans-30"/>
       <use xlink:href="#DejaVuSans-2e" x="63.623047"/>
       <use xlink:href="#DejaVuSans-30" x="95.410156"/>
       <use xlink:href="#DejaVuSans-30" x="159.033203"/>
      </g>
     </g>
    </g>
    <g id="ytick_2">
     <g id="line2d_9">
      <g>
       <use xlink:href="#m2d37ba1705" x="45.965865" y="259.631993" style="stroke: #000000; stroke-width: 0.8"/>
      </g>
     </g>
     <g id="text_10">
      <!-- 0.05 -->
      <g transform="translate(16.70024 263.431211)scale(0.1 -0.1)">
       <defs>
        <path id="DejaVuSans-35" d="M 691 4666 
L 3169 4666 
L 3169 4134 
L 1269 4134 
L 1269 2991 
Q 1406 3038 1543 3061 
Q 1681 3084 1819 3084 
Q 2600 3084 3056 2656 
Q 3513 2228 3513 1497 
Q 3513 744 3044 326 
Q 2575 -91 1722 -91 
Q 1428 -91 1123 -41 
Q 819 9 494 109 
L 494 744 
Q 775 591 1075 516 
Q 1375 441 1709 441 
Q 2250 441 2565 725 
Q 2881 1009 2881 1497 
Q 2881 1984 2565 2268 
Q 2250 2553 1709 2553 
Q 1456 2553 1204 2497 
Q 953 2441 691 2322 
L 691 4666 
z
" transform="scale(0.015625)"/>
       </defs>
       <use xlink:href="#DejaVuSans-30"/>
       <use xlink:href="#DejaVuSans-2e" x="63.623047"/>
       <use xlink:href="#DejaVuSans-30" x="95.410156"/>
       <use xlink:href="#DejaVuSans-35" x="159.033203"/>
      </g>
     </g>
    </g>
    <g id="ytick_3">
     <g id="line2d_10">
      <g>
       <use xlink:href="#m2d37ba1705" x="45.965865" y="221.076988" style="stroke: #000000; stroke-width: 0.8"/>
      </g>
     </g>
     <g id="text_11">
      <!-- 0.10 -->
      <g transform="translate(16.70024 224.876206)scale(0.1 -0.1)">
       <use xlink:href="#DejaVuSans-30"/>
       <use xlink:href="#DejaVuSans-2e" x="63.623047"/>
       <use xlink:href="#DejaVuSans-31" x="95.410156"/>
       <use xlink:href="#DejaVuSans-30" x="159.033203"/>
      </g>
     </g>
    </g>
    <g id="ytick_4">
     <g id="line2d_11">
      <g>
       <use xlink:href="#m2d37ba1705" x="45.965865" y="182.521982" style="stroke: #000000; stroke-width: 0.8"/>
      </g>
     </g>
     <g id="text_12">
      <!-- 0.15 -->
      <g transform="translate(16.70024 186.321201)scale(0.1 -0.1)">
       <use xlink:href="#DejaVuSans-30"/>
       <use xlink:href="#DejaVuSans-2e" x="63.623047"/>
       <use xlink:href="#DejaVuSans-31" x="95.410156"/>
       <use xlink:href="#DejaVuSans-35" x="159.033203"/>
      </g>
     </g>
    </g>
    <g id="ytick_5">
     <g id="line2d_12">
      <g>
       <use xlink:href="#m2d37ba1705" x="45.965865" y="143.966977" style="stroke: #000000; stroke-width: 0.8"/>
      </g>
     </g>
     <g id="text_13">
      <!-- 0.20 -->
      <g transform="translate(16.70024 147.766196)scale(0.1 -0.1)">
       <use xlink:href="#DejaVuSans-30"/>
       <use xlink:href="#DejaVuSans-2e" x="63.623047"/>
       <use xlink:href="#DejaVuSans-32" x="95.410156"/>
       <use xlink:href="#DejaVuSans-30" x="159.033203"/>
      </g>
     </g>
    </g>
    <g id="ytick_6">
     <g id="line2d_13">
      <g>
       <use xlink:href="#m2d37ba1705" x="45.965865" y="105.411972" style="stroke: #000000; stroke-width: 0.8"/>
      </g>
     </g>
     <g id="text_14">
      <!-- 0.25 -->
      <g transform="translate(16.70024 109.211191)scale(0.1 -0.1)">
       <use xlink:href="#DejaVuSans-30"/>
       <use xlink:href="#DejaVuSans-2e" x="63.623047"/>
       <use xlink:href="#DejaVuSans-32" x="95.410156"/>
       <use xlink:href="#DejaVuSans-35" x="159.033203"/>
      </g>
     </g>
    </g>
    <g id="ytick_7">
     <g id="line2d_14">
      <g>
       <use xlink:href="#m2d37ba1705" x="45.965865" y="66.856967" style="stroke: #000000; stroke-width: 0.8"/>
      </g>
     </g>
     <g id="text_15">
      <!-- 0.30 -->
      <g transform="translate(16.70024 70.656186)scale(0.1 -0.1)">
       <use xlink:href="#DejaVuSans-30"/>
       <use xlink:href="#DejaVuSans-2e" x="63.623047"/>
       <use xlink:href="#DejaVuSans-33" x="95.410156"/>
       <use xlink:href="#DejaVuSans-30" x="159.033203"/>
      </g>
     </g>
    </g>
    <g id="ytick_8">
     <g id="line2d_15">
      <g>
       <use xlink:href="#m2d37ba1705" x="45.965865" y="28.301962" style="stroke: #000000; stroke-width: 0.8"/>
      </g>
     </g>
     <g id="text_16">
      <!-- 0.35 -->
      <g transform="translate(16.70024 32.101181)scale(0.1 -0.1)">
       <use xlink:href="#DejaVuSans-30"/>
       <use xlink:href="#DejaVuSans-2e" x="63.623047"/>
       <use xlink:href="#DejaVuSans-33" x="95.410156"/>
       <use xlink:href="#DejaVuSans-35" x="159.033203"/>
      </g>
     </g>
    </g>
    <g id="text_17">
     <!-- $f(x; \mu)$ -->
     <g transform="translate(10.60024 172.121875)rotate(-90)scale(0.1 -0.1)">
      <defs>
       <path id="DejaVuSans-Oblique-66" d="M 3059 4863 
L 2969 4384 
L 2419 4384 
Q 2106 4384 1964 4261 
Q 1822 4138 1753 3809 
L 1691 3500 
L 2638 3500 
L 2553 3053 
L 1606 3053 
L 1013 0 
L 434 0 
L 1031 3053 
L 481 3053 
L 563 3500 
L 1113 3500 
L 1159 3744 
Q 1278 4363 1576 4613 
Q 1875 4863 2516 4863 
L 3059 4863 
z
" transform="scale(0.015625)"/>
       <path id="DejaVuSans-3b" d="M 750 3309 
L 1409 3309 
L 1409 2516 
L 750 2516 
L 750 3309 
z
M 750 794 
L 1409 794 
L 1409 256 
L 897 -744 
L 494 -744 
L 750 256 
L 750 794 
z
" transform="scale(0.015625)"/>
       <path id="DejaVuSans-Oblique-3bc" d="M -84 -1331 
L 856 3500 
L 1434 3500 
L 1009 1322 
Q 997 1256 987 1175 
Q 978 1094 978 1013 
Q 978 722 1161 565 
Q 1344 409 1684 409 
Q 2147 409 2431 671 
Q 2716 934 2816 1459 
L 3213 3500 
L 3788 3500 
L 3266 809 
Q 3253 750 3248 706 
Q 3244 663 3244 628 
Q 3244 531 3283 486 
Q 3322 441 3406 441 
Q 3438 441 3492 456 
Q 3547 472 3647 513 
L 3559 50 
Q 3422 -19 3297 -55 
Q 3172 -91 3053 -91 
Q 2847 -91 2730 40 
Q 2613 172 2613 403 
Q 2438 153 2195 31 
Q 1953 -91 1625 -91 
Q 1334 -91 1117 43 
Q 900 178 831 397 
L 494 -1331 
L -84 -1331 
z
" transform="scale(0.015625)"/>
      </defs>
      <use xlink:href="#DejaVuSans-Oblique-66" transform="translate(0 0.015625)"/>
      <use xlink:href="#DejaVuSans-28" transform="translate(35.205078 0.015625)"/>
      <use xlink:href="#DejaVuSans-Oblique-78" transform="translate(74.21875 0.015625)"/>
      <use xlink:href="#DejaVuSans-3b" transform="translate(133.398438 0.015625)"/>
      <use xlink:href="#DejaVuSans-Oblique-3bc" transform="translate(186.572266 0.015625)"/>
      <use xlink:href="#DejaVuSans-29" transform="translate(250.195312 0.015625)"/>
     </g>
    </g>
   </g>
   <g id="line2d_16">
    <path d="M 143.804444 75.589572 
L 359.961181 75.589572 
L 359.961181 75.589572 
" clip-path="url(#pcffcf6b29b)" style="fill: none; stroke: #1f77b4; stroke-width: 1.5; stroke-linecap: square"/>
   </g>
   <g id="line2d_17">
    <path d="M 112.354239 298.186998 
L 117.946567 277.870222 
L 123.538894 258.384399 
L 128.851605 240.642536 
L 134.164317 223.650607 
L 139.477028 207.408612 
L 144.510123 192.713227 
L 149.543218 178.690912 
L 154.576312 165.341669 
L 159.329791 153.352071 
L 164.083269 141.962835 
L 168.557131 131.791983 
L 173.030993 122.152941 
L 177.504856 113.045707 
L 181.699101 104.990667 
L 185.893347 97.403037 
L 190.087593 90.282817 
L 194.002222 84.058987 
L 197.916851 78.242323 
L 201.831481 72.832826 
L 205.466493 68.174301 
L 209.101506 63.866854 
L 212.736519 59.910484 
L 216.091916 56.570057 
L 219.447312 53.528773 
L 222.802709 50.786631 
L 226.158106 48.343633 
L 229.233886 46.367006 
L 232.309666 44.641742 
L 235.385446 43.167841 
L 238.461226 41.945303 
L 241.537006 40.974128 
L 244.612787 40.254315 
L 247.40895 39.818066 
L 250.205114 39.589554 
L 253.001278 39.56878 
L 255.797442 39.755744 
L 258.593606 40.150446 
L 261.389769 40.752887 
L 264.46555 41.655508 
L 267.54133 42.809493 
L 270.61711 44.21484 
L 273.69289 45.871551 
L 276.76867 47.779624 
L 279.84445 49.93906 
L 283.199847 52.581488 
L 286.555244 55.523058 
L 289.91064 58.76377 
L 293.266037 62.303626 
L 296.90105 66.476043 
L 300.536063 70.999538 
L 304.171075 75.87411 
L 308.085705 81.516274 
L 312.000334 87.565604 
L 315.914963 94.022101 
L 320.109209 101.391606 
L 324.303455 109.228522 
L 328.497701 117.532848 
L 332.971563 126.905986 
L 337.445425 136.810933 
L 341.919287 147.24769 
L 346.672765 158.919449 
L 351.426244 171.191571 
L 356.179722 184.064055 
L 361.212817 198.34812 
L 366.245912 213.305255 
L 371.558623 229.823541 
L 376.871334 247.091762 
L 382.184045 265.109916 
L 387.776373 284.886573 
L 391.411386 298.186998 
L 391.411386 298.186998 
" clip-path="url(#pcffcf6b29b)" style="fill: none; stroke: #ff7f0e; stroke-width: 1.5; stroke-linecap: square"/>
   </g>
   <g id="line2d_18">
    <path d="M 86.790378 298.186998 
L 88.444611 298.078363 
L 90.098844 297.756823 
L 91.753076 297.228877 
L 93.738156 296.331935 
L 95.723235 295.158015 
L 97.708315 293.717967 
L 99.693394 292.022506 
L 102.00932 289.735759 
L 104.325246 287.132317 
L 106.972018 283.790075 
L 109.618791 280.079416 
L 112.59641 275.4938 
L 115.574029 270.504448 
L 118.882495 264.52624 
L 122.521807 257.47163 
L 126.491965 249.267458 
L 130.792971 239.860442 
L 135.755669 228.445364 
L 141.380061 214.936138 
L 148.658685 196.829529 
L 175.457257 129.513775 
L 181.412495 115.451514 
L 186.70604 103.488231 
L 191.668738 92.813886 
L 196.30059 83.384914 
L 200.601595 75.13649 
L 204.571754 67.989347 
L 208.541913 61.318355 
L 212.181225 55.642988 
L 215.489691 50.863931 
L 218.798156 46.459725 
L 222.106622 42.441475 
L 225.084241 39.163368 
L 228.06186 36.21263 
L 231.039479 33.595159 
L 233.686252 31.552521 
L 236.333024 29.780522 
L 238.979797 28.281924 
L 241.626569 27.059054 
L 243.942495 26.216728 
L 246.258421 25.587963 
L 248.574347 25.173501 
L 250.890273 24.973833 
L 253.206199 24.989195 
L 255.522125 25.219568 
L 257.838051 25.66468 
L 260.153977 26.324006 
L 262.469902 27.196765 
L 264.785828 28.281924 
L 267.432601 29.780522 
L 270.079373 31.552521 
L 272.726146 33.595159 
L 275.372918 35.905241 
L 278.350537 38.819228 
L 281.328157 42.061273 
L 284.305776 45.624862 
L 287.614241 49.952731 
L 290.922707 54.657758 
L 294.562019 60.254606 
L 298.201331 66.275945 
L 302.17149 73.306517 
L 306.141649 80.793022 
L 310.442654 89.384365 
L 315.074506 99.151541 
L 320.037204 110.149567 
L 325.661596 123.192903 
L 331.947681 138.366125 
L 339.557151 157.339458 
L 364.70149 220.561646 
L 370.325882 233.839642 
L 375.28858 244.987823 
L 379.589585 254.11383 
L 383.559744 262.016168 
L 387.199056 268.757181 
L 390.507522 274.418804 
L 393.485141 279.096951 
L 396.46276 283.345904 
L 399.109533 286.735499 
L 401.425459 289.382845 
L 403.741385 291.715842 
L 406.05731 293.717967 
L 408.04239 295.158015 
L 410.027469 296.331935 
L 412.012549 297.228877 
L 413.666781 297.756823 
L 415.321014 298.078363 
L 416.975247 298.186998 
L 416.975247 298.186998 
" clip-path="url(#pcffcf6b29b)" style="fill: none; stroke: #2ca02c; stroke-width: 1.5; stroke-linecap: square"/>
   </g>
   <g id="line2d_19">
    <path d="M 64.685587 298.186998 
L 71.438193 298.087044 
L 75.18964 297.822165 
L 78.565943 297.368383 
L 81.567101 296.750779 
L 84.568259 295.899149 
L 87.194272 294.940863 
L 89.820285 293.767451 
L 92.446298 292.36576 
L 95.072311 290.72479 
L 97.698325 288.835601 
L 100.324338 286.69122 
L 102.950351 284.286548 
L 105.951509 281.215458 
L 108.952667 277.797885 
L 111.953825 274.034314 
L 114.954983 269.927794 
L 118.331285 264.904895 
L 121.707588 259.466035 
L 125.083891 253.625652 
L 128.835338 246.686769 
L 132.96193 238.539952 
L 137.088522 229.895936 
L 141.590259 219.954816 
L 146.467141 208.659265 
L 152.094312 195.063801 
L 158.846917 178.157699 
L 169.726115 150.224476 
L 180.980457 121.520299 
L 187.733062 104.923321 
L 193.360233 91.691514 
L 198.237115 80.78708 
L 202.738852 71.26876 
L 206.865444 63.064669 
L 210.616891 56.081317 
L 214.368339 49.585665 
L 217.744641 44.182842 
L 221.120944 39.222124 
L 224.122102 35.19959 
L 227.12326 31.554347 
L 229.749273 28.683178 
L 232.375286 26.116367 
L 235.001299 23.859997 
L 237.627312 21.919413 
L 239.878181 20.510896 
L 242.129049 19.34022 
L 244.379918 18.409416 
L 246.630786 17.720101 
L 248.881655 17.273471 
L 251.132523 17.0703 
L 253.383391 17.110942 
L 255.63426 17.395326 
L 257.885128 17.922958 
L 260.135997 18.692923 
L 262.386865 19.703885 
L 264.637734 20.954088 
L 266.888602 22.44136 
L 269.514615 24.472671 
L 272.140628 26.818316 
L 274.766642 29.47274 
L 277.392655 32.429647 
L 280.393813 36.170321 
L 283.394971 40.285269 
L 286.396129 44.761698 
L 289.772431 50.212359 
L 293.148734 56.081317 
L 296.900181 63.064669 
L 300.651629 70.501519 
L 304.778221 79.162194 
L 309.279958 89.124863 
L 314.156839 100.443626 
L 319.78401 114.062152 
L 326.91176 131.941692 
L 339.291537 163.761253 
L 349.0453 188.552902 
L 355.422761 204.187833 
L 361.049932 217.393655 
L 365.926813 228.274508 
L 370.42855 237.773999 
L 374.555142 245.96785 
L 378.30659 252.952666 
L 382.058037 259.466035 
L 385.43434 264.904895 
L 388.810642 269.927794 
L 392.186945 274.523602 
L 395.188103 278.244038 
L 398.189261 281.618273 
L 401.190419 284.646153 
L 404.191577 287.330272 
L 406.81759 289.40114 
L 409.443603 291.218613 
L 412.069616 292.790217 
L 414.695629 294.125471 
L 417.321643 295.23598 
L 420.322801 296.247723 
L 423.323958 297.008236 
L 426.325116 297.545829 
L 429.701419 297.9249 
L 433.828011 298.13939 
L 439.080038 298.186998 
L 439.080038 298.186998 
" clip-path="url(#pcffcf6b29b)" style="fill: none; stroke: #d62728; stroke-width: 1.5; stroke-linecap: square"/>
   </g>
   <g id="patch_3">
    <path d="M 45.965865 312.24351 
L 45.965865 3.00024 
" style="fill: none; stroke: #000000; stroke-width: 0.8; stroke-linejoin: miter; stroke-linecap: square"/>
   </g>
   <g id="patch_4">
    <path d="M 457.79976 312.24351 
L 457.79976 3.00024 
" style="fill: none; stroke: #000000; stroke-width: 0.8; stroke-linejoin: miter; stroke-linecap: square"/>
   </g>
   <g id="patch_5">
    <path d="M 45.965865 312.24351 
L 457.79976 312.24351 
" style="fill: none; stroke: #000000; stroke-width: 0.8; stroke-linejoin: miter; stroke-linecap: square"/>
   </g>
   <g id="patch_6">
    <path d="M 45.965865 3.00024 
L 457.79976 3.00024 
" style="fill: none; stroke: #000000; stroke-width: 0.8; stroke-linejoin: miter; stroke-linecap: square"/>
   </g>
   <g id="legend_1">
    <g id="patch_7">
     <path d="M 412.43726 69.71274 
L 450.79976 69.71274 
Q 452.79976 69.71274 452.79976 67.71274 
L 452.79976 10.00024 
Q 452.79976 8.00024 450.79976 8.00024 
L 412.43726 8.00024 
Q 410.43726 8.00024 410.43726 10.00024 
L 410.43726 67.71274 
Q 410.43726 69.71274 412.43726 69.71274 
z
" style="fill: #ffffff; opacity: 0.8; stroke: #cccccc; stroke-linejoin: miter"/>
    </g>
    <g id="line2d_20">
     <path d="M 414.43726 16.098678 
L 424.43726 16.098678 
L 434.43726 16.098678 
" style="fill: none; stroke: #1f77b4; stroke-width: 1.5; stroke-linecap: square"/>
    </g>
    <g id="text_18">
     <!-- 0 -->
     <g transform="translate(442.43726 19.598678)scale(0.1 -0.1)">
      <use xlink:href="#DejaVuSans-30"/>
     </g>
    </g>
    <g id="line2d_21">
     <path d="M 414.43726 30.776803 
L 424.43726 30.776803 
L 434.43726 30.776803 
" style="fill: none; stroke: #ff7f0e; stroke-width: 1.5; stroke-linecap: square"/>
    </g>
    <g id="text_19">
     <!-- 1 -->
     <g transform="translate(442.43726 34.276803)scale(0.1 -0.1)">
      <use xlink:href="#DejaVuSans-31"/>
     </g>
    </g>
    <g id="line2d_22">
     <path d="M 414.43726 45.454928 
L 424.43726 45.454928 
L 434.43726 45.454928 
" style="fill: none; stroke: #2ca02c; stroke-width: 1.5; stroke-linecap: square"/>
    </g>
    <g id="text_20">
     <!-- 2 -->
     <g transform="translate(442.43726 48.954928)scale(0.1 -0.1)">
      <use xlink:href="#DejaVuSans-32"/>
     </g>
    </g>
    <g id="line2d_23">
     <path d="M 414.43726 60.133053 
L 424.43726 60.133053 
L 434.43726 60.133053 
" style="fill: none; stroke: #d62728; stroke-width: 1.5; stroke-linecap: square"/>
    </g>
    <g id="text_21">
     <!-- 3 -->
     <g transform="translate(442.43726 63.633053)scale(0.1 -0.1)">
      <use xlink:href="#DejaVuSans-33"/>
     </g>
    </g>
   </g>
  </g>
 </g>
 <defs>
  <clipPath id="pcffcf6b29b">
   <rect x="45.965865" y="3.00024" width="411.833895" height="309.24327"/>
  </clipPath>
 </defs>
</svg>
