<?xml version="1.0" encoding="utf-8" standalone="no"?>
<!DOCTYPE svg PUBLIC "-//W3C//DTD SVG 1.1//EN"
  "http://www.w3.org/Graphics/SVG/1.1/DTD/svg11.dtd">
<svg xmlns:xlink="http://www.w3.org/1999/xlink" width="460.8pt" height="345.6pt" viewBox="0 0 460.8 345.6" xmlns="http://www.w3.org/2000/svg" version="1.1">
 <metadata>
  <rdf:RDF xmlns:dc="http://purl.org/dc/elements/1.1/" xmlns:cc="http://creativecommons.org/ns#" xmlns:rdf="http://www.w3.org/1999/02/22-rdf-syntax-ns#">
   <cc:Work>
    <dc:type rdf:resource="http://purl.org/dc/dcmitype/StillImage"/>
    <dc:date>2021-11-26T09:52:50.941670</dc:date>
    <dc:format>image/svg+xml</dc:format>
    <dc:creator>
     <cc:Agent>
      <dc:title>Matplotlib v3.5.0, https://matplotlib.org/</dc:title>
     </cc:Agent>
    </dc:creator>
   </cc:Work>
  </rdf:RDF>
 </metadata>
 <defs>
  <style type="text/css">*{stroke-linejoin: round; stroke-linecap: butt}</style>
 </defs>
 <g id="figure_1">
  <g id="patch_1">
   <path d="M 0 345.6 
L 460.8 345.6 
L 460.8 0 
L 0 0 
z
" style="fill: #ffffff"/>
  </g>
  <g id="axes_1">
   <g id="patch_2">
    <path d="M 39.58149 312.24351 
L 455.936089 312.24351 
L 455.936089 6.799459 
L 39.58149 6.799459 
z
" style="fill: #ffffff"/>
   </g>
   <g id="matplotlib.axis_1">
    <g id="xtick_1">
     <g id="line2d_1">
      <defs>
       <path id="m26e004c97f" d="M 0 0 
L 0 3.5 
" style="stroke: #000000; stroke-width: 0.8"/>
      </defs>
      <g>
       <use xlink:href="#m26e004c97f" x="39.58149" y="312.24351" style="stroke: #000000; stroke-width: 0.8"/>
      </g>
     </g>
     <g id="text_1">
      <!-- 0 -->
      <g transform="translate(36.40024 326.841947)scale(0.1 -0.1)">
       <defs>
        <path id="DejaVuSans-30" d="M 2034 4250 
Q 1547 4250 1301 3770 
Q 1056 3291 1056 2328 
Q 1056 1369 1301 889 
Q 1547 409 2034 409 
Q 2525 409 2770 889 
Q 3016 1369 3016 2328 
Q 3016 3291 2770 3770 
Q 2525 4250 2034 4250 
z
M 2034 4750 
Q 2819 4750 3233 4129 
Q 3647 3509 3647 2328 
Q 3647 1150 3233 529 
Q 2819 -91 2034 -91 
Q 1250 -91 836 529 
Q 422 1150 422 2328 
Q 422 3509 836 4129 
Q 1250 4750 2034 4750 
z
" transform="scale(0.015625)"/>
       </defs>
       <use xlink:href="#DejaVuSans-30"/>
      </g>
     </g>
    </g>
    <g id="xtick_2">
     <g id="line2d_2">
      <g>
       <use xlink:href="#m26e004c97f" x="121.951271" y="312.24351" style="stroke: #000000; stroke-width: 0.8"/>
      </g>
     </g>
     <g id="text_2">
      <!-- 10 -->
      <g transform="translate(115.588771 326.841947)scale(0.1 -0.1)">
       <defs>
        <path id="DejaVuSans-31" d="M 794 531 
L 1825 531 
L 1825 4091 
L 703 3866 
L 703 4441 
L 1819 4666 
L 2450 4666 
L 2450 531 
L 3481 531 
L 3481 0 
L 794 0 
L 794 531 
z
" transform="scale(0.015625)"/>
       </defs>
       <use xlink:href="#DejaVuSans-31"/>
       <use xlink:href="#DejaVuSans-30" x="63.623047"/>
      </g>
     </g>
    </g>
    <g id="xtick_3">
     <g id="line2d_3">
      <g>
       <use xlink:href="#m26e004c97f" x="204.321053" y="312.24351" style="stroke: #000000; stroke-width: 0.8"/>
      </g>
     </g>
     <g id="text_3">
      <!-- 20 -->
      <g transform="translate(197.958553 326.841947)scale(0.1 -0.1)">
       <defs>
        <path id="DejaVuSans-32" d="M 1228 531 
L 3431 531 
L 3431 0 
L 469 0 
L 469 531 
Q 828 903 1448 1529 
Q 2069 2156 2228 2338 
Q 2531 2678 2651 2914 
Q 2772 3150 2772 3378 
Q 2772 3750 2511 3984 
Q 2250 4219 1831 4219 
Q 1534 4219 1204 4116 
Q 875 4013 500 3803 
L 500 4441 
Q 881 4594 1212 4672 
Q 1544 4750 1819 4750 
Q 2544 4750 2975 4387 
Q 3406 4025 3406 3419 
Q 3406 3131 3298 2873 
Q 3191 2616 2906 2266 
Q 2828 2175 2409 1742 
Q 1991 1309 1228 531 
z
" transform="scale(0.015625)"/>
       </defs>
       <use xlink:href="#DejaVuSans-32"/>
       <use xlink:href="#DejaVuSans-30" x="63.623047"/>
      </g>
     </g>
    </g>
    <g id="xtick_4">
     <g id="line2d_4">
      <g>
       <use xlink:href="#m26e004c97f" x="286.690834" y="312.24351" style="stroke: #000000; stroke-width: 0.8"/>
      </g>
     </g>
     <g id="text_4">
      <!-- 30 -->
      <g transform="translate(280.328334 326.841947)scale(0.1 -0.1)">
       <defs>
        <path id="DejaVuSans-33" d="M 2597 2516 
Q 3050 2419 3304 2112 
Q 3559 1806 3559 1356 
Q 3559 666 3084 287 
Q 2609 -91 1734 -91 
Q 1441 -91 1130 -33 
Q 819 25 488 141 
L 488 750 
Q 750 597 1062 519 
Q 1375 441 1716 441 
Q 2309 441 2620 675 
Q 2931 909 2931 1356 
Q 2931 1769 2642 2001 
Q 2353 2234 1838 2234 
L 1294 2234 
L 1294 2753 
L 1863 2753 
Q 2328 2753 2575 2939 
Q 2822 3125 2822 3475 
Q 2822 3834 2567 4026 
Q 2313 4219 1838 4219 
Q 1578 4219 1281 4162 
Q 984 4106 628 3988 
L 628 4550 
Q 988 4650 1302 4700 
Q 1616 4750 1894 4750 
Q 2613 4750 3031 4423 
Q 3450 4097 3450 3541 
Q 3450 3153 3228 2886 
Q 3006 2619 2597 2516 
z
" transform="scale(0.015625)"/>
       </defs>
       <use xlink:href="#DejaVuSans-33"/>
       <use xlink:href="#DejaVuSans-30" x="63.623047"/>
      </g>
     </g>
    </g>
    <g id="xtick_5">
     <g id="line2d_5">
      <g>
       <use xlink:href="#m26e004c97f" x="369.060616" y="312.24351" style="stroke: #000000; stroke-width: 0.8"/>
      </g>
     </g>
     <g id="text_5">
      <!-- 40 -->
      <g transform="translate(362.698116 326.841947)scale(0.1 -0.1)">
       <defs>
        <path id="DejaVuSans-34" d="M 2419 4116 
L 825 1625 
L 2419 1625 
L 2419 4116 
z
M 2253 4666 
L 3047 4666 
L 3047 1625 
L 3713 1625 
L 3713 1100 
L 3047 1100 
L 3047 0 
L 2419 0 
L 2419 1100 
L 313 1100 
L 313 1709 
L 2253 4666 
z
" transform="scale(0.015625)"/>
       </defs>
       <use xlink:href="#DejaVuSans-34"/>
       <use xlink:href="#DejaVuSans-30" x="63.623047"/>
      </g>
     </g>
    </g>
    <g id="xtick_6">
     <g id="line2d_6">
      <g>
       <use xlink:href="#m26e004c97f" x="451.430397" y="312.24351" style="stroke: #000000; stroke-width: 0.8"/>
      </g>
     </g>
     <g id="text_6">
      <!-- 50 -->
      <g transform="translate(445.067897 326.841947)scale(0.1 -0.1)">
       <defs>
        <path id="DejaVuSans-35" d="M 691 4666 
L 3169 4666 
L 3169 4134 
L 1269 4134 
L 1269 2991 
Q 1406 3038 1543 3061 
Q 1681 3084 1819 3084 
Q 2600 3084 3056 2656 
Q 3513 2228 3513 1497 
Q 3513 744 3044 326 
Q 2575 -91 1722 -91 
Q 1428 -91 1123 -41 
Q 819 9 494 109 
L 494 744 
Q 775 591 1075 516 
Q 1375 441 1709 441 
Q 2250 441 2565 725 
Q 2881 1009 2881 1497 
Q 2881 1984 2565 2268 
Q 2250 2553 1709 2553 
Q 1456 2553 1204 2497 
Q 953 2441 691 2322 
L 691 4666 
z
" transform="scale(0.015625)"/>
       </defs>
       <use xlink:href="#DejaVuSans-35"/>
       <use xlink:href="#DejaVuSans-30" x="63.623047"/>
      </g>
     </g>
    </g>
    <g id="text_7">
     <!-- r (mm) -->
     <g transform="translate(230.472071 340.520072)scale(0.1 -0.1)">
      <defs>
       <path id="DejaVuSans-72" d="M 2631 2963 
Q 2534 3019 2420 3045 
Q 2306 3072 2169 3072 
Q 1681 3072 1420 2755 
Q 1159 2438 1159 1844 
L 1159 0 
L 581 0 
L 581 3500 
L 1159 3500 
L 1159 2956 
Q 1341 3275 1631 3429 
Q 1922 3584 2338 3584 
Q 2397 3584 2469 3576 
Q 2541 3569 2628 3553 
L 2631 2963 
z
" transform="scale(0.015625)"/>
       <path id="DejaVuSans-20" transform="scale(0.015625)"/>
       <path id="DejaVuSans-28" d="M 1984 4856 
Q 1566 4138 1362 3434 
Q 1159 2731 1159 2009 
Q 1159 1288 1364 580 
Q 1569 -128 1984 -844 
L 1484 -844 
Q 1016 -109 783 600 
Q 550 1309 550 2009 
Q 550 2706 781 3412 
Q 1013 4119 1484 4856 
L 1984 4856 
z
" transform="scale(0.015625)"/>
       <path id="DejaVuSans-6d" d="M 3328 2828 
Q 3544 3216 3844 3400 
Q 4144 3584 4550 3584 
Q 5097 3584 5394 3201 
Q 5691 2819 5691 2113 
L 5691 0 
L 5113 0 
L 5113 2094 
Q 5113 2597 4934 2840 
Q 4756 3084 4391 3084 
Q 3944 3084 3684 2787 
Q 3425 2491 3425 1978 
L 3425 0 
L 2847 0 
L 2847 2094 
Q 2847 2600 2669 2842 
Q 2491 3084 2119 3084 
Q 1678 3084 1418 2786 
Q 1159 2488 1159 1978 
L 1159 0 
L 581 0 
L 581 3500 
L 1159 3500 
L 1159 2956 
Q 1356 3278 1631 3431 
Q 1906 3584 2284 3584 
Q 2666 3584 2933 3390 
Q 3200 3197 3328 2828 
z
" transform="scale(0.015625)"/>
       <path id="DejaVuSans-29" d="M 513 4856 
L 1013 4856 
Q 1481 4119 1714 3412 
Q 1947 2706 1947 2009 
Q 1947 1309 1714 600 
Q 1481 -109 1013 -844 
L 513 -844 
Q 928 -128 1133 580 
Q 1338 1288 1338 2009 
Q 1338 2731 1133 3434 
Q 928 4138 513 4856 
z
" transform="scale(0.015625)"/>
      </defs>
      <use xlink:href="#DejaVuSans-72"/>
      <use xlink:href="#DejaVuSans-20" x="41.113281"/>
      <use xlink:href="#DejaVuSans-28" x="72.900391"/>
      <use xlink:href="#DejaVuSans-6d" x="111.914062"/>
      <use xlink:href="#DejaVuSans-6d" x="209.326172"/>
      <use xlink:href="#DejaVuSans-29" x="306.738281"/>
     </g>
    </g>
   </g>
   <g id="matplotlib.axis_2">
    <g id="ytick_1">
     <g id="line2d_7">
      <defs>
       <path id="me790cc7e83" d="M 0 0 
L -3.5 0 
" style="stroke: #000000; stroke-width: 0.8"/>
      </defs>
      <g>
       <use xlink:href="#me790cc7e83" x="39.58149" y="312.24351" style="stroke: #000000; stroke-width: 0.8"/>
      </g>
     </g>
     <g id="text_8">
      <!-- 0.0 -->
      <g transform="translate(16.678365 316.042729)scale(0.1 -0.1)">
       <defs>
        <path id="DejaVuSans-2e" d="M 684 794 
L 1344 794 
L 1344 0 
L 684 0 
L 684 794 
z
" transform="scale(0.015625)"/>
       </defs>
       <use xlink:href="#DejaVuSans-30"/>
       <use xlink:href="#DejaVuSans-2e" x="63.623047"/>
       <use xlink:href="#DejaVuSans-30" x="95.410156"/>
      </g>
     </g>
    </g>
    <g id="ytick_2">
     <g id="line2d_8">
      <g>
       <use xlink:href="#me790cc7e83" x="39.58149" y="261.336168" style="stroke: #000000; stroke-width: 0.8"/>
      </g>
     </g>
     <g id="text_9">
      <!-- 0.5 -->
      <g transform="translate(16.678365 265.135387)scale(0.1 -0.1)">
       <use xlink:href="#DejaVuSans-30"/>
       <use xlink:href="#DejaVuSans-2e" x="63.623047"/>
       <use xlink:href="#DejaVuSans-35" x="95.410156"/>
      </g>
     </g>
    </g>
    <g id="ytick_3">
     <g id="line2d_9">
      <g>
       <use xlink:href="#me790cc7e83" x="39.58149" y="210.428826" style="stroke: #000000; stroke-width: 0.8"/>
      </g>
     </g>
     <g id="text_10">
      <!-- 1.0 -->
      <g transform="translate(16.678365 214.228045)scale(0.1 -0.1)">
       <use xlink:href="#DejaVuSans-31"/>
       <use xlink:href="#DejaVuSans-2e" x="63.623047"/>
       <use xlink:href="#DejaVuSans-30" x="95.410156"/>
      </g>
     </g>
    </g>
    <g id="ytick_4">
     <g id="line2d_10">
      <g>
       <use xlink:href="#me790cc7e83" x="39.58149" y="159.521484" style="stroke: #000000; stroke-width: 0.8"/>
      </g>
     </g>
     <g id="text_11">
      <!-- 1.5 -->
      <g transform="translate(16.678365 163.320703)scale(0.1 -0.1)">
       <use xlink:href="#DejaVuSans-31"/>
       <use xlink:href="#DejaVuSans-2e" x="63.623047"/>
       <use xlink:href="#DejaVuSans-35" x="95.410156"/>
      </g>
     </g>
    </g>
    <g id="ytick_5">
     <g id="line2d_11">
      <g>
       <use xlink:href="#me790cc7e83" x="39.58149" y="108.614143" style="stroke: #000000; stroke-width: 0.8"/>
      </g>
     </g>
     <g id="text_12">
      <!-- 2.0 -->
      <g transform="translate(16.678365 112.413361)scale(0.1 -0.1)">
       <use xlink:href="#DejaVuSans-32"/>
       <use xlink:href="#DejaVuSans-2e" x="63.623047"/>
       <use xlink:href="#DejaVuSans-30" x="95.410156"/>
      </g>
     </g>
    </g>
    <g id="ytick_6">
     <g id="line2d_12">
      <g>
       <use xlink:href="#me790cc7e83" x="39.58149" y="57.706801" style="stroke: #000000; stroke-width: 0.8"/>
      </g>
     </g>
     <g id="text_13">
      <!-- 2.5 -->
      <g transform="translate(16.678365 61.506019)scale(0.1 -0.1)">
       <use xlink:href="#DejaVuSans-32"/>
       <use xlink:href="#DejaVuSans-2e" x="63.623047"/>
       <use xlink:href="#DejaVuSans-35" x="95.410156"/>
      </g>
     </g>
    </g>
    <g id="ytick_7">
     <g id="line2d_13">
      <g>
       <use xlink:href="#me790cc7e83" x="39.58149" y="6.799459" style="stroke: #000000; stroke-width: 0.8"/>
      </g>
     </g>
     <g id="text_14">
      <!-- 3.0 -->
      <g transform="translate(16.678365 10.598678)scale(0.1 -0.1)">
       <use xlink:href="#DejaVuSans-33"/>
       <use xlink:href="#DejaVuSans-2e" x="63.623047"/>
       <use xlink:href="#DejaVuSans-30" x="95.410156"/>
      </g>
     </g>
    </g>
    <g id="text_15">
     <!-- g(r) -->
     <g transform="translate(10.598677 168.652734)rotate(-90)scale(0.1 -0.1)">
      <defs>
       <path id="DejaVuSans-67" d="M 2906 1791 
Q 2906 2416 2648 2759 
Q 2391 3103 1925 3103 
Q 1463 3103 1205 2759 
Q 947 2416 947 1791 
Q 947 1169 1205 825 
Q 1463 481 1925 481 
Q 2391 481 2648 825 
Q 2906 1169 2906 1791 
z
M 3481 434 
Q 3481 -459 3084 -895 
Q 2688 -1331 1869 -1331 
Q 1566 -1331 1297 -1286 
Q 1028 -1241 775 -1147 
L 775 -588 
Q 1028 -725 1275 -790 
Q 1522 -856 1778 -856 
Q 2344 -856 2625 -561 
Q 2906 -266 2906 331 
L 2906 616 
Q 2728 306 2450 153 
Q 2172 0 1784 0 
Q 1141 0 747 490 
Q 353 981 353 1791 
Q 353 2603 747 3093 
Q 1141 3584 1784 3584 
Q 2172 3584 2450 3431 
Q 2728 3278 2906 2969 
L 2906 3500 
L 3481 3500 
L 3481 434 
z
" transform="scale(0.015625)"/>
      </defs>
      <use xlink:href="#DejaVuSans-67"/>
      <use xlink:href="#DejaVuSans-28" x="63.476562"/>
      <use xlink:href="#DejaVuSans-72" x="102.490234"/>
      <use xlink:href="#DejaVuSans-29" x="143.603516"/>
     </g>
    </g>
   </g>
   <g id="line2d_14">
    <path d="M 39.58149 112.017165 
L 41.541875 112.038368 
L 43.502259 112.101975 
L 45.462644 112.207988 
L 47.423029 112.356406 
L 49.383413 112.547229 
L 51.343798 112.780457 
L 53.304182 113.05609 
L 55.264567 113.374129 
L 57.224952 113.734572 
L 59.185336 114.137421 
L 61.145721 114.582675 
L 63.106106 115.070333 
L 65.06649 115.600397 
L 67.026875 116.172866 
L 68.987259 116.787741 
L 70.947644 117.44502 
L 72.908029 118.144704 
L 74.868413 118.886794 
L 76.828798 119.671289 
L 78.789183 120.498188 
L 80.749567 121.367493 
L 82.709952 122.279203 
L 84.670336 123.233318 
L 86.630721 124.229839 
L 88.591106 125.268764 
L 90.55149 126.350094 
L 92.511875 127.47383 
L 94.47226 128.639971 
L 96.432644 129.848516 
L 98.393029 131.099467 
L 100.353413 132.392823 
L 102.313798 133.728585 
L 104.274183 135.106751 
L 106.234567 136.527322 
L 108.194952 137.990299 
L 110.155337 139.49568 
L 112.115721 141.043467 
L 114.076106 142.633659 
L 116.03649 144.266256 
L 117.996875 145.941258 
L 119.95726 147.658665 
L 121.917644 149.418477 
L 123.878029 151.220695 
L 125.838414 153.065317 
L 127.798798 154.952345 
L 129.759183 156.881778 
L 131.719567 158.853616 
L 133.679952 160.867859 
L 135.640337 162.924507 
L 135.640433 162.924609 
L 142.177079 169.62737 
L 148.713725 175.915991 
L 155.250371 181.838686 
L 161.787017 187.435708 
L 168.323663 192.741014 
L 174.860309 197.783511 
L 181.396955 202.588014 
L 187.933601 207.175977 
L 194.470247 211.566083 
L 201.006893 215.774692 
L 207.543539 219.816217 
L 214.080185 223.703421 
L 220.616831 227.447657 
L 227.153477 231.059068 
L 233.690123 234.546757 
L 240.226769 237.91892 
L 246.763415 241.182967 
L 253.300061 244.345615 
L 259.836708 247.412975 
L 266.373354 250.390621 
L 272.91 253.283652 
L 279.446646 256.096745 
L 285.983292 258.834199 
L 292.519938 261.499975 
L 299.056584 264.097731 
L 305.59323 266.630852 
L 312.129876 269.102476 
L 318.666522 271.51552 
L 325.203168 273.872695 
L 331.739814 276.17653 
L 338.27646 278.429386 
L 344.813106 280.63347 
L 351.349752 282.79085 
L 357.886398 284.903463 
L 364.423044 286.97313 
L 370.95969 289.001562 
L 377.496336 290.99037 
L 384.032982 292.941073 
L 390.569628 294.855103 
L 397.106274 296.733813 
L 403.64292 298.578485 
L 410.179566 300.390329 
L 416.716213 302.170493 
L 423.252859 303.920066 
L 429.789505 305.640081 
L 436.326151 307.331522 
L 442.862797 308.995321 
L 449.399443 310.632369 
" clip-path="url(#p0fb94c1d2f)" style="fill: none; stroke: #1f77b4; stroke-width: 1.5; stroke-linecap: square"/>
   </g>
   <g id="line2d_15">
    <path d="M 39.58149 86.563494 
L 41.541875 86.605895 
L 43.502259 86.733044 
L 45.462644 86.944783 
L 47.423029 87.240846 
L 49.383413 87.620862 
L 51.343798 88.084356 
L 53.304182 88.630744 
L 55.264567 89.259336 
L 57.224952 89.969339 
L 59.185336 90.759852 
L 61.145721 91.629868 
L 63.106106 92.578274 
L 65.06649 93.603852 
L 67.026875 94.705276 
L 68.987259 95.881118 
L 70.947644 97.129839 
L 72.908029 98.449797 
L 74.868413 99.839245 
L 76.828798 101.296327 
L 78.789183 102.819083 
L 80.749567 104.405447 
L 82.709952 106.053246 
L 84.670336 107.760202 
L 86.630721 109.523931 
L 88.591106 111.341942 
L 90.55149 113.211639 
L 92.511875 115.130321 
L 94.47226 117.095178 
L 96.432644 119.103297 
L 98.393029 121.151657 
L 100.353413 123.237133 
L 102.313798 125.356493 
L 104.274183 127.506398 
L 106.234567 129.683404 
L 108.194952 131.883962 
L 110.155337 134.104416 
L 112.115721 136.341003 
L 114.076106 138.589856 
L 116.03649 140.847001 
L 117.996875 143.108359 
L 119.95726 145.369743 
L 121.917644 147.626861 
L 123.878029 149.875317 
L 125.838414 152.110606 
L 127.798798 154.328119 
L 129.759183 156.52314 
L 131.719567 158.690848 
L 133.679952 160.826315 
L 135.640337 162.924507 
L 135.640433 162.924609 
L 142.177079 169.62737 
L 148.713725 175.915991 
L 155.250371 181.838686 
L 161.787017 187.435708 
L 168.323663 192.741014 
L 174.860309 197.783511 
L 181.396955 202.588014 
L 187.933601 207.175977 
L 194.470247 211.566083 
L 201.006893 215.774692 
L 207.543539 219.816217 
L 214.080185 223.703421 
L 220.616831 227.447657 
L 227.153477 231.059068 
L 233.690123 234.546757 
L 240.226769 237.91892 
L 246.763415 241.182967 
L 253.300061 244.345615 
L 259.836708 247.412975 
L 266.373354 250.390621 
L 272.91 253.283652 
L 279.446646 256.096745 
L 285.983292 258.834199 
L 292.519938 261.499975 
L 299.056584 264.097731 
L 305.59323 266.630852 
L 312.129876 269.102476 
L 318.666522 271.51552 
L 325.203168 273.872695 
L 331.739814 276.17653 
L 338.27646 278.429386 
L 344.813106 280.63347 
L 351.349752 282.79085 
L 357.886398 284.903463 
L 364.423044 286.97313 
L 370.95969 289.001562 
L 377.496336 290.99037 
L 384.032982 292.941073 
L 390.569628 294.855103 
L 397.106274 296.733813 
L 403.64292 298.578485 
L 410.179566 300.390329 
L 416.716213 302.170493 
L 423.252859 303.920066 
L 429.789505 305.640081 
L 436.326151 307.331522 
L 442.862797 308.995321 
L 449.399443 310.632369 
" clip-path="url(#p0fb94c1d2f)" style="fill: none; stroke: #ff7f0e; stroke-width: 1.5; stroke-linecap: square"/>
   </g>
   <g id="line2d_16">
    <path d="M 39.58149 98.253711 
L 41.541875 98.296108 
L 43.502259 98.423191 
L 45.462644 98.634643 
L 47.423029 98.929939 
L 49.383413 99.308345 
L 51.343798 99.768927 
L 53.304182 100.31055 
L 55.264567 100.931892 
L 57.224952 101.631445 
L 59.185336 102.407525 
L 61.145721 103.258282 
L 63.106106 104.181707 
L 65.06649 105.175648 
L 67.026875 106.237814 
L 68.987259 107.365792 
L 70.947644 108.557055 
L 72.908029 109.808981 
L 74.868413 111.118857 
L 76.828798 112.483897 
L 78.789183 113.901256 
L 80.749567 115.36804 
L 82.709952 116.881319 
L 84.670336 118.43814 
L 86.630721 120.03554 
L 88.591106 121.670558 
L 90.55149 123.340245 
L 92.511875 125.041677 
L 94.47226 126.771961 
L 96.432644 128.528252 
L 98.393029 130.307755 
L 100.353413 132.107739 
L 102.313798 133.925541 
L 104.274183 135.758576 
L 106.234567 137.604339 
L 108.194952 139.460416 
L 110.155337 141.324484 
L 112.115721 143.194319 
L 114.076106 145.067797 
L 116.03649 146.942895 
L 117.996875 148.817698 
L 119.95726 150.690396 
L 121.917644 152.559283 
L 123.878029 154.422765 
L 125.838414 156.279349 
L 127.798798 158.127651 
L 129.759183 159.966389 
L 131.719567 161.794381 
L 133.679952 163.610547 
L 135.640337 165.413902 
L 135.640433 165.41399 
L 142.177079 171.323671 
L 148.713725 177.055675 
L 155.250371 182.5934 
L 161.787017 187.928158 
L 168.323663 193.057536 
L 174.860309 197.983866 
L 181.396955 202.712883 
L 187.933601 207.252588 
L 194.470247 211.612343 
L 201.006893 215.802181 
L 207.543539 219.83229 
L 214.080185 223.712666 
L 220.616831 227.452887 
L 227.153477 231.061979 
L 233.690123 234.54835 
L 240.226769 237.919778 
L 246.763415 241.183421 
L 253.300061 244.345851 
L 259.836708 247.413096 
L 266.373354 250.390682 
L 272.91 253.283682 
L 279.446646 256.09676 
L 285.983292 258.834206 
L 292.519938 261.499978 
L 299.056584 264.097732 
L 305.59323 266.630853 
L 312.129876 269.102477 
L 318.666522 271.51552 
L 325.203168 273.872695 
L 331.739814 276.17653 
L 338.27646 278.429386 
L 344.813106 280.63347 
L 351.349752 282.79085 
L 357.886398 284.903463 
L 364.423044 286.97313 
L 370.95969 289.001562 
L 377.496336 290.99037 
L 384.032982 292.941073 
L 390.569628 294.855103 
L 397.106274 296.733813 
L 403.64292 298.578485 
L 410.179566 300.390329 
L 416.716213 302.170493 
L 423.252859 303.920066 
L 429.789505 305.640081 
L 436.326151 307.331522 
L 442.862797 308.995321 
L 449.399443 310.632369 
" clip-path="url(#p0fb94c1d2f)" style="fill: none; stroke: #2ca02c; stroke-width: 1.5; stroke-linecap: square"/>
   </g>
   <g id="line2d_17">
    <path d="M 58.798453 -1 
L 59.185336 1.117027 
L 61.145721 10.821003 
L 63.106106 19.680039 
L 65.06649 27.829562 
L 67.026875 35.374842 
L 68.987259 42.399329 
L 70.947644 48.970298 
L 72.908029 55.142775 
L 74.868413 60.962341 
L 76.828798 66.467178 
L 78.789183 71.689588 
L 80.749567 76.657143 
L 82.709952 81.393564 
L 84.670336 85.919406 
L 86.630721 90.2526 
L 88.591106 94.408878 
L 90.55149 98.402123 
L 92.511875 102.244642 
L 94.47226 105.947402 
L 96.432644 109.520214 
L 98.393029 112.97189 
L 100.353413 116.310375 
L 102.313798 119.542859 
L 104.274183 122.675866 
L 106.234567 125.715336 
L 108.194952 128.666693 
L 110.155337 131.534902 
L 112.115721 134.324519 
L 114.076106 137.039739 
L 116.03649 139.684424 
L 117.996875 142.262149 
L 119.95726 144.77622 
L 121.917644 147.229704 
L 123.878029 149.625454 
L 125.838414 151.966125 
L 127.798798 154.254192 
L 129.759183 156.491967 
L 131.719567 158.681615 
L 133.679952 160.825161 
L 135.640337 162.924507 
L 135.640433 162.924609 
L 142.177079 169.62737 
L 148.713725 175.915991 
L 155.250371 181.838686 
L 161.787017 187.435708 
L 168.323663 192.741014 
L 174.860309 197.783511 
L 181.396955 202.588014 
L 187.933601 207.175977 
L 194.470247 211.566083 
L 201.006893 215.774692 
L 207.543539 219.816217 
L 214.080185 223.703421 
L 220.616831 227.447657 
L 227.153477 231.059068 
L 233.690123 234.546757 
L 240.226769 237.91892 
L 246.763415 241.182967 
L 253.300061 244.345615 
L 259.836708 247.412975 
L 266.373354 250.390621 
L 272.91 253.283652 
L 279.446646 256.096745 
L 285.983292 258.834199 
L 292.519938 261.499975 
L 299.056584 264.097731 
L 305.59323 266.630852 
L 312.129876 269.102476 
L 318.666522 271.51552 
L 325.203168 273.872695 
L 331.739814 276.17653 
L 338.27646 278.429386 
L 344.813106 280.63347 
L 351.349752 282.79085 
L 357.886398 284.903463 
L 364.423044 286.97313 
L 370.95969 289.001562 
L 377.496336 290.99037 
L 384.032982 292.941073 
L 390.569628 294.855103 
L 397.106274 296.733813 
L 403.64292 298.578485 
L 410.179566 300.390329 
L 416.716213 302.170493 
L 423.252859 303.920066 
L 429.789505 305.640081 
L 436.326151 307.331522 
L 442.862797 308.995321 
L 449.399443 310.632369 
L 455.936089 312.24351 
" clip-path="url(#p0fb94c1d2f)" style="fill: none; stroke-dasharray: 1.5,2.475; stroke-dashoffset: 0; stroke: #000000; stroke-width: 1.5"/>
   </g>
   <g id="patch_3">
    <path d="M 39.58149 312.24351 
L 39.58149 6.799459 
" style="fill: none; stroke: #000000; stroke-width: 0.8; stroke-linejoin: miter; stroke-linecap: square"/>
   </g>
   <g id="patch_4">
    <path d="M 455.936089 312.24351 
L 455.936089 6.799459 
" style="fill: none; stroke: #000000; stroke-width: 0.8; stroke-linejoin: miter; stroke-linecap: square"/>
   </g>
   <g id="patch_5">
    <path d="M 39.58149 312.24351 
L 455.936089 312.24351 
" style="fill: none; stroke: #000000; stroke-width: 0.8; stroke-linejoin: miter; stroke-linecap: square"/>
   </g>
   <g id="patch_6">
    <path d="M 39.58149 6.799459 
L 455.936089 6.799459 
" style="fill: none; stroke: #000000; stroke-width: 0.8; stroke-linejoin: miter; stroke-linecap: square"/>
   </g>
   <g id="text_16">
    <!-- b=50.5 mm -->
    <g transform="translate(39.58149 289.847885)scale(0.1 -0.1)">
     <defs>
      <path id="DejaVuSans-62" d="M 3116 1747 
Q 3116 2381 2855 2742 
Q 2594 3103 2138 3103 
Q 1681 3103 1420 2742 
Q 1159 2381 1159 1747 
Q 1159 1113 1420 752 
Q 1681 391 2138 391 
Q 2594 391 2855 752 
Q 3116 1113 3116 1747 
z
M 1159 2969 
Q 1341 3281 1617 3432 
Q 1894 3584 2278 3584 
Q 2916 3584 3314 3078 
Q 3713 2572 3713 1747 
Q 3713 922 3314 415 
Q 2916 -91 2278 -91 
Q 1894 -91 1617 61 
Q 1341 213 1159 525 
L 1159 0 
L 581 0 
L 581 4863 
L 1159 4863 
L 1159 2969 
z
" transform="scale(0.015625)"/>
      <path id="DejaVuSans-3d" d="M 678 2906 
L 4684 2906 
L 4684 2381 
L 678 2381 
L 678 2906 
z
M 678 1631 
L 4684 1631 
L 4684 1100 
L 678 1100 
L 678 1631 
z
" transform="scale(0.015625)"/>
     </defs>
     <use xlink:href="#DejaVuSans-62"/>
     <use xlink:href="#DejaVuSans-3d" x="63.476562"/>
     <use xlink:href="#DejaVuSans-35" x="147.265625"/>
     <use xlink:href="#DejaVuSans-30" x="210.888672"/>
     <use xlink:href="#DejaVuSans-2e" x="274.511719"/>
     <use xlink:href="#DejaVuSans-35" x="306.298828"/>
     <use xlink:href="#DejaVuSans-20" x="369.921875"/>
     <use xlink:href="#DejaVuSans-6d" x="401.708984"/>
     <use xlink:href="#DejaVuSans-6d" x="499.121094"/>
    </g>
    <!-- a=11.7 mm -->
    <g transform="translate(39.58149 301.045697)scale(0.1 -0.1)">
     <defs>
      <path id="DejaVuSans-61" d="M 2194 1759 
Q 1497 1759 1228 1600 
Q 959 1441 959 1056 
Q 959 750 1161 570 
Q 1363 391 1709 391 
Q 2188 391 2477 730 
Q 2766 1069 2766 1631 
L 2766 1759 
L 2194 1759 
z
M 3341 1997 
L 3341 0 
L 2766 0 
L 2766 531 
Q 2569 213 2275 61 
Q 1981 -91 1556 -91 
Q 1019 -91 701 211 
Q 384 513 384 1019 
Q 384 1609 779 1909 
Q 1175 2209 1959 2209 
L 2766 2209 
L 2766 2266 
Q 2766 2663 2505 2880 
Q 2244 3097 1772 3097 
Q 1472 3097 1187 3025 
Q 903 2953 641 2809 
L 641 3341 
Q 956 3463 1253 3523 
Q 1550 3584 1831 3584 
Q 2591 3584 2966 3190 
Q 3341 2797 3341 1997 
z
" transform="scale(0.015625)"/>
      <path id="DejaVuSans-37" d="M 525 4666 
L 3525 4666 
L 3525 4397 
L 1831 0 
L 1172 0 
L 2766 4134 
L 525 4134 
L 525 4666 
z
" transform="scale(0.015625)"/>
     </defs>
     <use xlink:href="#DejaVuSans-61"/>
     <use xlink:href="#DejaVuSans-3d" x="61.279297"/>
     <use xlink:href="#DejaVuSans-31" x="145.068359"/>
     <use xlink:href="#DejaVuSans-31" x="208.691406"/>
     <use xlink:href="#DejaVuSans-2e" x="272.314453"/>
     <use xlink:href="#DejaVuSans-37" x="304.101562"/>
     <use xlink:href="#DejaVuSans-20" x="367.724609"/>
     <use xlink:href="#DejaVuSans-6d" x="399.511719"/>
     <use xlink:href="#DejaVuSans-6d" x="496.923828"/>
    </g>
    <!-- $\sigma$=5.8 mm -->
    <g transform="translate(39.58149 312.24351)scale(0.1 -0.1)">
     <defs>
      <path id="DejaVuSans-Oblique-3c3" d="M 2219 3044 
Q 1744 3044 1422 2700 
Q 1081 2341 969 1747 
Q 844 1119 1044 756 
Q 1241 397 1706 397 
Q 2166 397 2503 759 
Q 2844 1122 2966 1747 
Q 3075 2319 2881 2700 
Q 2700 3044 2219 3044 
z
M 2309 3503 
L 4219 3500 
L 4106 2925 
L 3463 2925 
Q 3706 2438 3575 1747 
Q 3406 888 2884 400 
Q 2359 -91 1609 -91 
Q 856 -91 525 400 
Q 194 888 363 1747 
Q 528 2609 1050 3097 
Q 1484 3503 2309 3503 
z
" transform="scale(0.015625)"/>
      <path id="DejaVuSans-38" d="M 2034 2216 
Q 1584 2216 1326 1975 
Q 1069 1734 1069 1313 
Q 1069 891 1326 650 
Q 1584 409 2034 409 
Q 2484 409 2743 651 
Q 3003 894 3003 1313 
Q 3003 1734 2745 1975 
Q 2488 2216 2034 2216 
z
M 1403 2484 
Q 997 2584 770 2862 
Q 544 3141 544 3541 
Q 544 4100 942 4425 
Q 1341 4750 2034 4750 
Q 2731 4750 3128 4425 
Q 3525 4100 3525 3541 
Q 3525 3141 3298 2862 
Q 3072 2584 2669 2484 
Q 3125 2378 3379 2068 
Q 3634 1759 3634 1313 
Q 3634 634 3220 271 
Q 2806 -91 2034 -91 
Q 1263 -91 848 271 
Q 434 634 434 1313 
Q 434 1759 690 2068 
Q 947 2378 1403 2484 
z
M 1172 3481 
Q 1172 3119 1398 2916 
Q 1625 2713 2034 2713 
Q 2441 2713 2670 2916 
Q 2900 3119 2900 3481 
Q 2900 3844 2670 4047 
Q 2441 4250 2034 4250 
Q 1625 4250 1398 4047 
Q 1172 3844 1172 3481 
z
" transform="scale(0.015625)"/>
     </defs>
     <use xlink:href="#DejaVuSans-Oblique-3c3" transform="translate(0 0.78125)"/>
     <use xlink:href="#DejaVuSans-3d" transform="translate(63.378906 0.78125)"/>
     <use xlink:href="#DejaVuSans-35" transform="translate(147.167969 0.78125)"/>
     <use xlink:href="#DejaVuSans-2e" transform="translate(210.791016 0.78125)"/>
     <use xlink:href="#DejaVuSans-38" transform="translate(239.953125 0.78125)"/>
     <use xlink:href="#DejaVuSans-20" transform="translate(303.576172 0.78125)"/>
     <use xlink:href="#DejaVuSans-6d" transform="translate(335.363281 0.78125)"/>
     <use xlink:href="#DejaVuSans-6d" transform="translate(432.775391 0.78125)"/>
    </g>
   </g>
   <g id="legend_1">
    <g id="patch_7">
     <path d="M 370.698589 76.333834 
L 448.936089 76.333834 
Q 450.936089 76.333834 450.936089 74.333834 
L 450.936089 13.799459 
Q 450.936089 11.799459 448.936089 11.799459 
L 370.698589 11.799459 
Q 368.698589 11.799459 368.698589 13.799459 
L 368.698589 74.333834 
Q 368.698589 76.333834 370.698589 76.333834 
z
" style="fill: #ffffff; opacity: 0.8; stroke: #cccccc; stroke-linejoin: miter"/>
    </g>
    <g id="line2d_18">
     <path d="M 372.698589 19.897896 
L 382.698589 19.897896 
L 392.698589 19.897896 
" style="fill: none; stroke: #1f77b4; stroke-width: 1.5; stroke-linecap: square"/>
    </g>
    <g id="text_17">
     <!-- uniform -->
     <g transform="translate(400.698589 23.397896)scale(0.1 -0.1)">
      <defs>
       <path id="DejaVuSans-75" d="M 544 1381 
L 544 3500 
L 1119 3500 
L 1119 1403 
Q 1119 906 1312 657 
Q 1506 409 1894 409 
Q 2359 409 2629 706 
Q 2900 1003 2900 1516 
L 2900 3500 
L 3475 3500 
L 3475 0 
L 2900 0 
L 2900 538 
Q 2691 219 2414 64 
Q 2138 -91 1772 -91 
Q 1169 -91 856 284 
Q 544 659 544 1381 
z
M 1991 3584 
L 1991 3584 
z
" transform="scale(0.015625)"/>
       <path id="DejaVuSans-6e" d="M 3513 2113 
L 3513 0 
L 2938 0 
L 2938 2094 
Q 2938 2591 2744 2837 
Q 2550 3084 2163 3084 
Q 1697 3084 1428 2787 
Q 1159 2491 1159 1978 
L 1159 0 
L 581 0 
L 581 3500 
L 1159 3500 
L 1159 2956 
Q 1366 3272 1645 3428 
Q 1925 3584 2291 3584 
Q 2894 3584 3203 3211 
Q 3513 2838 3513 2113 
z
" transform="scale(0.015625)"/>
       <path id="DejaVuSans-69" d="M 603 3500 
L 1178 3500 
L 1178 0 
L 603 0 
L 603 3500 
z
M 603 4863 
L 1178 4863 
L 1178 4134 
L 603 4134 
L 603 4863 
z
" transform="scale(0.015625)"/>
       <path id="DejaVuSans-66" d="M 2375 4863 
L 2375 4384 
L 1825 4384 
Q 1516 4384 1395 4259 
Q 1275 4134 1275 3809 
L 1275 3500 
L 2222 3500 
L 2222 3053 
L 1275 3053 
L 1275 0 
L 697 0 
L 697 3053 
L 147 3053 
L 147 3500 
L 697 3500 
L 697 3744 
Q 697 4328 969 4595 
Q 1241 4863 1831 4863 
L 2375 4863 
z
" transform="scale(0.015625)"/>
       <path id="DejaVuSans-6f" d="M 1959 3097 
Q 1497 3097 1228 2736 
Q 959 2375 959 1747 
Q 959 1119 1226 758 
Q 1494 397 1959 397 
Q 2419 397 2687 759 
Q 2956 1122 2956 1747 
Q 2956 2369 2687 2733 
Q 2419 3097 1959 3097 
z
M 1959 3584 
Q 2709 3584 3137 3096 
Q 3566 2609 3566 1747 
Q 3566 888 3137 398 
Q 2709 -91 1959 -91 
Q 1206 -91 779 398 
Q 353 888 353 1747 
Q 353 2609 779 3096 
Q 1206 3584 1959 3584 
z
" transform="scale(0.015625)"/>
      </defs>
      <use xlink:href="#DejaVuSans-75"/>
      <use xlink:href="#DejaVuSans-6e" x="63.378906"/>
      <use xlink:href="#DejaVuSans-69" x="126.757812"/>
      <use xlink:href="#DejaVuSans-66" x="154.541016"/>
      <use xlink:href="#DejaVuSans-6f" x="189.746094"/>
      <use xlink:href="#DejaVuSans-72" x="250.927734"/>
      <use xlink:href="#DejaVuSans-6d" x="290.291016"/>
     </g>
    </g>
    <g id="line2d_19">
     <path d="M 372.698589 34.576021 
L 382.698589 34.576021 
L 392.698589 34.576021 
" style="fill: none; stroke: #ff7f0e; stroke-width: 1.5; stroke-linecap: square"/>
    </g>
    <g id="text_18">
     <!-- parabolic -->
     <g transform="translate(400.698589 38.076021)scale(0.1 -0.1)">
      <defs>
       <path id="DejaVuSans-70" d="M 1159 525 
L 1159 -1331 
L 581 -1331 
L 581 3500 
L 1159 3500 
L 1159 2969 
Q 1341 3281 1617 3432 
Q 1894 3584 2278 3584 
Q 2916 3584 3314 3078 
Q 3713 2572 3713 1747 
Q 3713 922 3314 415 
Q 2916 -91 2278 -91 
Q 1894 -91 1617 61 
Q 1341 213 1159 525 
z
M 3116 1747 
Q 3116 2381 2855 2742 
Q 2594 3103 2138 3103 
Q 1681 3103 1420 2742 
Q 1159 2381 1159 1747 
Q 1159 1113 1420 752 
Q 1681 391 2138 391 
Q 2594 391 2855 752 
Q 3116 1113 3116 1747 
z
" transform="scale(0.015625)"/>
       <path id="DejaVuSans-6c" d="M 603 4863 
L 1178 4863 
L 1178 0 
L 603 0 
L 603 4863 
z
" transform="scale(0.015625)"/>
       <path id="DejaVuSans-63" d="M 3122 3366 
L 3122 2828 
Q 2878 2963 2633 3030 
Q 2388 3097 2138 3097 
Q 1578 3097 1268 2742 
Q 959 2388 959 1747 
Q 959 1106 1268 751 
Q 1578 397 2138 397 
Q 2388 397 2633 464 
Q 2878 531 3122 666 
L 3122 134 
Q 2881 22 2623 -34 
Q 2366 -91 2075 -91 
Q 1284 -91 818 406 
Q 353 903 353 1747 
Q 353 2603 823 3093 
Q 1294 3584 2113 3584 
Q 2378 3584 2631 3529 
Q 2884 3475 3122 3366 
z
" transform="scale(0.015625)"/>
      </defs>
      <use xlink:href="#DejaVuSans-70"/>
      <use xlink:href="#DejaVuSans-61" x="63.476562"/>
      <use xlink:href="#DejaVuSans-72" x="124.755859"/>
      <use xlink:href="#DejaVuSans-61" x="165.869141"/>
      <use xlink:href="#DejaVuSans-62" x="227.148438"/>
      <use xlink:href="#DejaVuSans-6f" x="290.625"/>
      <use xlink:href="#DejaVuSans-6c" x="351.806641"/>
      <use xlink:href="#DejaVuSans-69" x="379.589844"/>
      <use xlink:href="#DejaVuSans-63" x="407.373047"/>
     </g>
    </g>
    <g id="line2d_20">
     <path d="M 372.698589 49.254146 
L 382.698589 49.254146 
L 392.698589 49.254146 
" style="fill: none; stroke: #2ca02c; stroke-width: 1.5; stroke-linecap: square"/>
    </g>
    <g id="text_19">
     <!-- gaussian -->
     <g transform="translate(400.698589 52.754146)scale(0.1 -0.1)">
      <defs>
       <path id="DejaVuSans-73" d="M 2834 3397 
L 2834 2853 
Q 2591 2978 2328 3040 
Q 2066 3103 1784 3103 
Q 1356 3103 1142 2972 
Q 928 2841 928 2578 
Q 928 2378 1081 2264 
Q 1234 2150 1697 2047 
L 1894 2003 
Q 2506 1872 2764 1633 
Q 3022 1394 3022 966 
Q 3022 478 2636 193 
Q 2250 -91 1575 -91 
Q 1294 -91 989 -36 
Q 684 19 347 128 
L 347 722 
Q 666 556 975 473 
Q 1284 391 1588 391 
Q 1994 391 2212 530 
Q 2431 669 2431 922 
Q 2431 1156 2273 1281 
Q 2116 1406 1581 1522 
L 1381 1569 
Q 847 1681 609 1914 
Q 372 2147 372 2553 
Q 372 3047 722 3315 
Q 1072 3584 1716 3584 
Q 2034 3584 2315 3537 
Q 2597 3491 2834 3397 
z
" transform="scale(0.015625)"/>
      </defs>
      <use xlink:href="#DejaVuSans-67"/>
      <use xlink:href="#DejaVuSans-61" x="63.476562"/>
      <use xlink:href="#DejaVuSans-75" x="124.755859"/>
      <use xlink:href="#DejaVuSans-73" x="188.134766"/>
      <use xlink:href="#DejaVuSans-73" x="240.234375"/>
      <use xlink:href="#DejaVuSans-69" x="292.333984"/>
      <use xlink:href="#DejaVuSans-61" x="320.117188"/>
      <use xlink:href="#DejaVuSans-6e" x="381.396484"/>
     </g>
    </g>
    <g id="line2d_21">
     <path d="M 372.698589 66.133834 
L 382.698589 66.133834 
L 392.698589 66.133834 
" style="fill: none; stroke-dasharray: 1.5,2.475; stroke-dashoffset: 0; stroke: #000000; stroke-width: 1.5"/>
    </g>
    <g id="text_20">
     <!-- $\ln\frac{b}{r}$ -->
     <g transform="translate(400.698589 69.633834)scale(0.1 -0.1)">
      <defs>
       <path id="DejaVuSans-Oblique-62" d="M 3169 2138 
Q 3169 2591 2961 2847 
Q 2753 3103 2388 3103 
Q 2122 3103 1889 2973 
Q 1656 2844 1484 2597 
Q 1303 2338 1198 1995 
Q 1094 1653 1094 1313 
Q 1094 881 1298 636 
Q 1503 391 1863 391 
Q 2134 391 2365 517 
Q 2597 644 2772 891 
Q 2950 1147 3059 1487 
Q 3169 1828 3169 2138 
z
M 1381 2969 
Q 1594 3256 1914 3420 
Q 2234 3584 2584 3584 
Q 3122 3584 3439 3221 
Q 3756 2859 3756 2241 
Q 3756 1734 3570 1259 
Q 3384 784 3041 416 
Q 2816 172 2522 40 
Q 2228 -91 1906 -91 
Q 1566 -91 1316 65 
Q 1066 222 909 531 
L 806 0 
L 231 0 
L 1178 4863 
L 1753 4863 
L 1381 2969 
z
" transform="scale(0.015625)"/>
       <path id="DejaVuSans-Oblique-72" d="M 2853 2969 
Q 2766 3016 2653 3041 
Q 2541 3066 2413 3066 
Q 1953 3066 1609 2717 
Q 1266 2369 1153 1784 
L 800 0 
L 225 0 
L 909 3500 
L 1484 3500 
L 1375 2956 
Q 1603 3259 1920 3421 
Q 2238 3584 2597 3584 
Q 2691 3584 2781 3573 
Q 2872 3563 2963 3538 
L 2853 2969 
z
" transform="scale(0.015625)"/>
      </defs>
      <use xlink:href="#DejaVuSans-6c" transform="translate(0 0.01875)"/>
      <use xlink:href="#DejaVuSans-6e" transform="translate(27.783203 0.01875)"/>
      <use xlink:href="#DejaVuSans-Oblique-62" transform="translate(107.397786 44.810938)scale(0.7)"/>
      <use xlink:href="#DejaVuSans-Oblique-72" transform="translate(115.397786 -26.634375)scale(0.7)"/>
      <path d="M 107.397786 18.815625 
L 107.397786 25.065625 
L 151.831379 25.065625 
L 151.831379 18.815625 
L 107.397786 18.815625 
z
"/>
     </g>
    </g>
   </g>
  </g>
 </g>
 <defs>
  <clipPath id="p0fb94c1d2f">
   <rect x="39.58149" y="6.799459" width="416.354599" height="305.444051"/>
  </clipPath>
 </defs>
</svg>
