<?xml version="1.0" encoding="utf-8" standalone="no"?>
<!DOCTYPE svg PUBLIC "-//W3C//DTD SVG 1.1//EN"
  "http://www.w3.org/Graphics/SVG/1.1/DTD/svg11.dtd">
<svg height="345.6pt" version="1.1" viewBox="0 0 460.8 345.6" width="460.8pt" xmlns="http://www.w3.org/2000/svg" xmlns:xlink="http://www.w3.org/1999/xlink">
 <metadata>
  <rdf:RDF xmlns:cc="http://creativecommons.org/ns#" xmlns:dc="http://purl.org/dc/elements/1.1/" xmlns:rdf="http://www.w3.org/1999/02/22-rdf-syntax-ns#">
   <cc:Work>
    <dc:type rdf:resource="http://purl.org/dc/dcmitype/StillImage"/>
    <dc:date>2021-06-25T09:18:58.409663</dc:date>
    <dc:format>image/svg+xml</dc:format>
    <dc:creator>
     <cc:Agent>
      <dc:title>Matplotlib v3.4.0, https://matplotlib.org/</dc:title>
     </cc:Agent>
    </dc:creator>
   </cc:Work>
  </rdf:RDF>
 </metadata>
 <defs>
  <style type="text/css">*{stroke-linecap:butt;stroke-linejoin:round;}</style>
 </defs>
 <g id="figure_1">
  <g id="patch_1">
   <path d="M 0 345.6 
L 460.8 345.6 
L 460.8 0 
L 0 0 
z
" style="fill:#ffffff;"/>
  </g>
  <g id="axes_1">
   <g id="patch_2">
    <path d="M 38.420552 312.24351 
L 457.79976 312.24351 
L 457.79976 3.00024 
L 38.420552 3.00024 
z
" style="fill:#ffffff;"/>
   </g>
   <g id="matplotlib.axis_1">
    <g id="xtick_1">
     <g id="line2d_1">
      <defs>
       <path d="M 0 0 
L 0 3.5 
" id="m74b0eb2908" style="stroke:#000000;stroke-width:0.8;"/>
      </defs>
      <g>
       <use style="stroke:#000000;stroke-width:0.8;" x="57.483244" xlink:href="#m74b0eb2908" y="312.24351"/>
      </g>
     </g>
     <g id="text_1">
      <!-- −3 -->
      <g transform="translate(50.11215 326.841947)scale(0.1 -0.1)">
       <defs>
        <path d="M 678 2272 
L 4684 2272 
L 4684 1741 
L 678 1741 
L 678 2272 
z
" id="DejaVuSans-2212" transform="scale(0.015625)"/>
        <path d="M 2597 2516 
Q 3050 2419 3304 2112 
Q 3559 1806 3559 1356 
Q 3559 666 3084 287 
Q 2609 -91 1734 -91 
Q 1441 -91 1130 -33 
Q 819 25 488 141 
L 488 750 
Q 750 597 1062 519 
Q 1375 441 1716 441 
Q 2309 441 2620 675 
Q 2931 909 2931 1356 
Q 2931 1769 2642 2001 
Q 2353 2234 1838 2234 
L 1294 2234 
L 1294 2753 
L 1863 2753 
Q 2328 2753 2575 2939 
Q 2822 3125 2822 3475 
Q 2822 3834 2567 4026 
Q 2313 4219 1838 4219 
Q 1578 4219 1281 4162 
Q 984 4106 628 3988 
L 628 4550 
Q 988 4650 1302 4700 
Q 1616 4750 1894 4750 
Q 2613 4750 3031 4423 
Q 3450 4097 3450 3541 
Q 3450 3153 3228 2886 
Q 3006 2619 2597 2516 
z
" id="DejaVuSans-33" transform="scale(0.015625)"/>
       </defs>
       <use xlink:href="#DejaVuSans-2212"/>
       <use x="83.789062" xlink:href="#DejaVuSans-33"/>
      </g>
     </g>
    </g>
    <g id="xtick_2">
     <g id="line2d_2">
      <g>
       <use style="stroke:#000000;stroke-width:0.8;" x="121.025548" xlink:href="#m74b0eb2908" y="312.24351"/>
      </g>
     </g>
     <g id="text_2">
      <!-- −2 -->
      <g transform="translate(113.654454 326.841947)scale(0.1 -0.1)">
       <defs>
        <path d="M 1228 531 
L 3431 531 
L 3431 0 
L 469 0 
L 469 531 
Q 828 903 1448 1529 
Q 2069 2156 2228 2338 
Q 2531 2678 2651 2914 
Q 2772 3150 2772 3378 
Q 2772 3750 2511 3984 
Q 2250 4219 1831 4219 
Q 1534 4219 1204 4116 
Q 875 4013 500 3803 
L 500 4441 
Q 881 4594 1212 4672 
Q 1544 4750 1819 4750 
Q 2544 4750 2975 4387 
Q 3406 4025 3406 3419 
Q 3406 3131 3298 2873 
Q 3191 2616 2906 2266 
Q 2828 2175 2409 1742 
Q 1991 1309 1228 531 
z
" id="DejaVuSans-32" transform="scale(0.015625)"/>
       </defs>
       <use xlink:href="#DejaVuSans-2212"/>
       <use x="83.789062" xlink:href="#DejaVuSans-32"/>
      </g>
     </g>
    </g>
    <g id="xtick_3">
     <g id="line2d_3">
      <g>
       <use style="stroke:#000000;stroke-width:0.8;" x="184.567852" xlink:href="#m74b0eb2908" y="312.24351"/>
      </g>
     </g>
     <g id="text_3">
      <!-- −1 -->
      <g transform="translate(177.196758 326.841947)scale(0.1 -0.1)">
       <defs>
        <path d="M 794 531 
L 1825 531 
L 1825 4091 
L 703 3866 
L 703 4441 
L 1819 4666 
L 2450 4666 
L 2450 531 
L 3481 531 
L 3481 0 
L 794 0 
L 794 531 
z
" id="DejaVuSans-31" transform="scale(0.015625)"/>
       </defs>
       <use xlink:href="#DejaVuSans-2212"/>
       <use x="83.789062" xlink:href="#DejaVuSans-31"/>
      </g>
     </g>
    </g>
    <g id="xtick_4">
     <g id="line2d_4">
      <g>
       <use style="stroke:#000000;stroke-width:0.8;" x="248.110156" xlink:href="#m74b0eb2908" y="312.24351"/>
      </g>
     </g>
     <g id="text_4">
      <!-- 0 -->
      <g transform="translate(244.928906 326.841947)scale(0.1 -0.1)">
       <defs>
        <path d="M 2034 4250 
Q 1547 4250 1301 3770 
Q 1056 3291 1056 2328 
Q 1056 1369 1301 889 
Q 1547 409 2034 409 
Q 2525 409 2770 889 
Q 3016 1369 3016 2328 
Q 3016 3291 2770 3770 
Q 2525 4250 2034 4250 
z
M 2034 4750 
Q 2819 4750 3233 4129 
Q 3647 3509 3647 2328 
Q 3647 1150 3233 529 
Q 2819 -91 2034 -91 
Q 1250 -91 836 529 
Q 422 1150 422 2328 
Q 422 3509 836 4129 
Q 1250 4750 2034 4750 
z
" id="DejaVuSans-30" transform="scale(0.015625)"/>
       </defs>
       <use xlink:href="#DejaVuSans-30"/>
      </g>
     </g>
    </g>
    <g id="xtick_5">
     <g id="line2d_5">
      <g>
       <use style="stroke:#000000;stroke-width:0.8;" x="311.65246" xlink:href="#m74b0eb2908" y="312.24351"/>
      </g>
     </g>
     <g id="text_5">
      <!-- 1 -->
      <g transform="translate(308.47121 326.841947)scale(0.1 -0.1)">
       <use xlink:href="#DejaVuSans-31"/>
      </g>
     </g>
    </g>
    <g id="xtick_6">
     <g id="line2d_6">
      <g>
       <use style="stroke:#000000;stroke-width:0.8;" x="375.194765" xlink:href="#m74b0eb2908" y="312.24351"/>
      </g>
     </g>
     <g id="text_6">
      <!-- 2 -->
      <g transform="translate(372.013515 326.841947)scale(0.1 -0.1)">
       <use xlink:href="#DejaVuSans-32"/>
      </g>
     </g>
    </g>
    <g id="xtick_7">
     <g id="line2d_7">
      <g>
       <use style="stroke:#000000;stroke-width:0.8;" x="438.737069" xlink:href="#m74b0eb2908" y="312.24351"/>
      </g>
     </g>
     <g id="text_7">
      <!-- 3 -->
      <g transform="translate(435.555819 326.841947)scale(0.1 -0.1)">
       <use xlink:href="#DejaVuSans-33"/>
      </g>
     </g>
    </g>
    <g id="text_8">
     <!-- x -->
     <g transform="translate(245.150781 340.520072)scale(0.1 -0.1)">
      <defs>
       <path d="M 3513 3500 
L 2247 1797 
L 3578 0 
L 2900 0 
L 1881 1375 
L 863 0 
L 184 0 
L 1544 1831 
L 300 3500 
L 978 3500 
L 1906 2253 
L 2834 3500 
L 3513 3500 
z
" id="DejaVuSans-78" transform="scale(0.015625)"/>
      </defs>
      <use xlink:href="#DejaVuSans-78"/>
     </g>
    </g>
   </g>
   <g id="matplotlib.axis_2">
    <g id="ytick_1">
     <g id="line2d_8">
      <defs>
       <path d="M 0 0 
L -3.5 0 
" id="m8708ee8ae2" style="stroke:#000000;stroke-width:0.8;"/>
      </defs>
      <g>
       <use style="stroke:#000000;stroke-width:0.8;" x="38.420552" xlink:href="#m8708ee8ae2" y="293.044711"/>
      </g>
     </g>
     <g id="text_9">
      <!-- −2 -->
      <g transform="translate(16.678365 296.843929)scale(0.1 -0.1)">
       <use xlink:href="#DejaVuSans-2212"/>
       <use x="83.789062" xlink:href="#DejaVuSans-32"/>
      </g>
     </g>
    </g>
    <g id="ytick_2">
     <g id="line2d_9">
      <g>
       <use style="stroke:#000000;stroke-width:0.8;" x="38.420552" xlink:href="#m8708ee8ae2" y="225.333293"/>
      </g>
     </g>
     <g id="text_10">
      <!-- −1 -->
      <g transform="translate(16.678365 229.132512)scale(0.1 -0.1)">
       <use xlink:href="#DejaVuSans-2212"/>
       <use x="83.789062" xlink:href="#DejaVuSans-31"/>
      </g>
     </g>
    </g>
    <g id="ytick_3">
     <g id="line2d_10">
      <g>
       <use style="stroke:#000000;stroke-width:0.8;" x="38.420552" xlink:href="#m8708ee8ae2" y="157.621875"/>
      </g>
     </g>
     <g id="text_11">
      <!-- 0 -->
      <g transform="translate(25.058052 161.421094)scale(0.1 -0.1)">
       <use xlink:href="#DejaVuSans-30"/>
      </g>
     </g>
    </g>
    <g id="ytick_4">
     <g id="line2d_11">
      <g>
       <use style="stroke:#000000;stroke-width:0.8;" x="38.420552" xlink:href="#m8708ee8ae2" y="89.910457"/>
      </g>
     </g>
     <g id="text_12">
      <!-- 1 -->
      <g transform="translate(25.058052 93.709676)scale(0.1 -0.1)">
       <use xlink:href="#DejaVuSans-31"/>
      </g>
     </g>
    </g>
    <g id="ytick_5">
     <g id="line2d_12">
      <g>
       <use style="stroke:#000000;stroke-width:0.8;" x="38.420552" xlink:href="#m8708ee8ae2" y="22.199039"/>
      </g>
     </g>
     <g id="text_13">
      <!-- 2 -->
      <g transform="translate(25.058052 25.998258)scale(0.1 -0.1)">
       <use xlink:href="#DejaVuSans-32"/>
      </g>
     </g>
    </g>
    <g id="text_14">
     <!-- y -->
     <g transform="translate(10.598677 160.58125)rotate(-90)scale(0.1 -0.1)">
      <defs>
       <path d="M 2059 -325 
Q 1816 -950 1584 -1140 
Q 1353 -1331 966 -1331 
L 506 -1331 
L 506 -850 
L 844 -850 
Q 1081 -850 1212 -737 
Q 1344 -625 1503 -206 
L 1606 56 
L 191 3500 
L 800 3500 
L 1894 763 
L 2988 3500 
L 3597 3500 
L 2059 -325 
z
" id="DejaVuSans-79" transform="scale(0.015625)"/>
      </defs>
      <use xlink:href="#DejaVuSans-79"/>
     </g>
    </g>
   </g>
   <g id="line2d_13">
    <path clip-path="url(#p0931099960)" d="M 438.737069 157.621875 
L 438.345405 148.945304 
L 437.172024 140.304387 
L 435.221748 131.734631 
L 432.502589 123.271252 
L 429.025723 114.949027 
L 424.805436 106.802153 
L 419.85907 98.864109 
L 414.206951 91.167513 
L 407.872304 83.743992 
L 400.881161 76.624051 
L 393.262248 69.836948 
L 385.046875 63.410571 
L 376.268799 57.371329 
L 366.964092 51.744039 
L 357.170989 46.551823 
L 346.929731 41.816017 
L 336.282402 37.556083 
L 325.272755 33.789525 
L 313.94603 30.53182 
L 302.348772 27.796356 
L 290.528635 25.594373 
L 278.534191 23.934919 
L 266.414729 22.824813 
L 254.22005 22.268617 
L 242.000263 22.268617 
L 229.805583 22.824813 
L 217.686121 23.934919 
L 205.691678 25.594373 
L 193.871541 27.796356 
L 182.274282 30.53182 
L 170.947557 33.789525 
L 159.93791 37.556083 
L 149.290581 41.816017 
L 139.049324 46.551823 
L 129.25622 51.744039 
L 119.951513 57.371329 
L 111.173438 63.410571 
L 102.958064 69.836948 
L 95.339152 76.624051 
L 88.348008 83.743992 
L 82.013362 91.167513 
L 76.361243 98.864109 
L 71.414877 106.802153 
L 67.194589 114.949027 
L 63.717723 123.271252 
L 60.998565 131.734631 
L 59.048288 140.304387 
L 57.874907 148.945304 
L 57.483244 157.621875 
L 57.874907 166.298446 
L 59.048288 174.939363 
L 60.998565 183.509119 
L 63.717723 191.972498 
L 67.194589 200.294723 
L 71.414877 208.441597 
L 76.361243 216.379641 
L 82.013362 224.076237 
L 88.348008 231.499758 
L 95.339152 238.619699 
L 102.958064 245.406802 
L 111.173438 251.833179 
L 119.951513 257.872421 
L 129.25622 263.499711 
L 139.049324 268.691927 
L 149.290581 273.427733 
L 159.93791 277.687667 
L 170.947557 281.454225 
L 182.274282 284.71193 
L 193.871541 287.447394 
L 205.691678 289.649377 
L 217.686121 291.308831 
L 229.805583 292.418937 
L 242.000263 292.975133 
L 254.22005 292.975133 
L 266.414729 292.418937 
L 278.534191 291.308831 
L 290.528635 289.649377 
L 302.348772 287.447394 
L 313.94603 284.71193 
L 325.272755 281.454225 
L 336.282402 277.687667 
L 346.929731 273.427733 
L 357.170989 268.691927 
L 366.964092 263.499711 
L 376.268799 257.872421 
L 385.046875 251.833179 
L 393.262248 245.406802 
L 400.881161 238.619699 
L 407.872304 231.499758 
L 414.206951 224.076237 
L 419.85907 216.379641 
L 424.805436 208.441597 
L 429.025723 200.294723 
L 432.502589 191.972498 
L 435.221748 183.509119 
L 437.172024 174.939363 
L 438.345405 166.298446 
L 438.737069 157.621875 
" style="fill:none;stroke:#1f77b4;stroke-linecap:square;stroke-width:1.5;"/>
   </g>
   <g id="line2d_14">
    <path clip-path="url(#p0931099960)" d="M 438.737069 157.621875 
L 438.541136 123.343517 
L 437.952934 109.194782 
L 436.971229 98.412721 
L 435.593916 89.417339 
L 433.817926 81.602942 
L 431.639107 74.663145 
L 429.05204 68.419054 
L 426.049806 62.756506 
L 422.623666 57.598116 
L 418.762624 52.889096 
L 414.45286 48.589385 
L 409.676935 44.668956 
L 404.412704 41.104867 
L 398.631779 37.879331 
L 392.297291 34.978402 
L 385.360549 32.391058 
L 377.755839 30.108542 
L 369.391927 28.12389 
L 360.137338 26.431572 
L 349.7927 25.02723 
L 338.032921 23.907483 
L 324.265523 23.069778 
L 307.180828 22.512288 
L 282.238005 22.233833 
L 213.982307 22.233833 
L 189.039485 22.512288 
L 171.954789 23.069778 
L 158.187392 23.907483 
L 146.427612 25.02723 
L 136.082975 26.431572 
L 126.828385 28.12389 
L 118.464473 30.108542 
L 110.859763 32.391058 
L 103.923022 34.978402 
L 97.588534 37.879331 
L 91.807609 41.104867 
L 86.543378 44.668956 
L 81.767452 48.589385 
L 77.457688 52.889096 
L 73.596647 57.598116 
L 70.170506 62.756506 
L 67.168273 68.419054 
L 64.581206 74.663145 
L 62.402386 81.602942 
L 60.626396 89.417339 
L 59.249083 98.412721 
L 58.267379 109.194782 
L 57.679176 123.343517 
L 57.483244 157.621874 
L 57.679176 191.900233 
L 58.267379 206.048968 
L 59.249083 216.831029 
L 60.626396 225.826411 
L 62.402386 233.640808 
L 64.581206 240.580605 
L 67.168273 246.824696 
L 70.170506 252.487244 
L 73.596647 257.645634 
L 77.457688 262.354654 
L 81.767452 266.654365 
L 86.543378 270.574794 
L 91.807609 274.138883 
L 97.588534 277.364419 
L 103.923022 280.265348 
L 110.859763 282.852692 
L 118.464473 285.135208 
L 126.828385 287.11986 
L 136.082975 288.812178 
L 146.427612 290.21652 
L 158.187392 291.336267 
L 171.954789 292.173972 
L 189.039485 292.731462 
L 213.982307 293.009917 
L 282.238005 293.009917 
L 307.180828 292.731462 
L 324.265523 292.173972 
L 338.032921 291.336267 
L 349.7927 290.21652 
L 360.137338 288.812178 
L 369.391927 287.11986 
L 377.755839 285.135208 
L 385.360549 282.852692 
L 392.297291 280.265348 
L 398.631779 277.364419 
L 404.412704 274.138883 
L 409.676935 270.574794 
L 414.45286 266.654365 
L 418.762624 262.354654 
L 422.623666 257.645634 
L 426.049806 252.487244 
L 429.05204 246.824696 
L 431.639107 240.580605 
L 433.817926 233.640808 
L 435.593916 225.826411 
L 436.971229 216.831029 
L 437.952934 206.048968 
L 438.541136 191.900233 
L 438.737069 157.621877 
" style="fill:none;stroke:#ff7f0e;stroke-linecap:square;stroke-width:1.5;"/>
   </g>
   <g id="line2d_15">
    <path clip-path="url(#p0931099960)" d="M 438.737069 157.621875 
L 438.345405 146.651013 
L 437.172024 135.750539 
L 435.221748 124.990232 
L 432.502589 114.438662 
L 429.025723 104.162597 
L 424.805436 94.226435 
L 419.85907 84.691644 
L 414.206951 75.616243 
L 407.872304 67.054313 
L 400.881161 59.055538 
L 393.262248 51.664792 
L 385.046875 44.921778 
L 376.268799 38.860705 
L 366.964092 33.510022 
L 357.170989 28.892212 
L 346.929731 25.023635 
L 336.282402 21.914438 
L 325.272755 19.568519 
L 313.94603 17.983559 
L 302.348772 17.15111 
L 290.528635 17.056752 
L 278.534191 17.680304 
L 266.414729 18.996101 
L 254.22005 20.97333 
L 242.000263 23.576421 
L 229.805583 26.765501 
L 217.686121 30.496892 
L 205.691678 34.723669 
L 193.871541 39.396264 
L 182.274282 44.463116 
L 170.947557 49.871363 
L 159.93791 55.567574 
L 149.290581 61.498516 
L 139.049324 67.611949 
L 129.25622 73.857441 
L 119.951513 80.187205 
L 111.173438 86.556921 
L 102.958064 92.926562 
L 95.339152 99.261168 
L 88.348008 105.531568 
L 82.013362 111.715002 
L 76.361243 117.795608 
L 71.414877 123.764727 
L 67.194589 129.620989 
L 63.717723 135.370118 
L 60.998565 141.024447 
L 59.048288 146.6021 
L 57.874907 152.12588 
L 57.483244 157.621875 
L 57.874907 163.11787 
L 59.048288 168.64165 
L 60.998565 174.219303 
L 63.717723 179.873632 
L 67.194589 185.622761 
L 71.414877 191.479023 
L 76.361243 197.448142 
L 82.013362 203.528748 
L 88.348008 209.712182 
L 95.339152 215.982582 
L 102.958064 222.317188 
L 111.173438 228.686829 
L 119.951513 235.056545 
L 129.25622 241.386309 
L 139.049324 247.631801 
L 149.290581 253.745234 
L 159.93791 259.676176 
L 170.947557 265.372387 
L 182.274282 270.780634 
L 193.871541 275.847486 
L 205.691678 280.520081 
L 217.686121 284.746858 
L 229.805583 288.478249 
L 242.000263 291.667329 
L 254.22005 294.27042 
L 266.414729 296.247649 
L 278.534191 297.563446 
L 290.528635 298.186998 
L 302.348772 298.09264 
L 313.94603 297.260191 
L 325.272755 295.675231 
L 336.282402 293.329312 
L 346.929731 290.220115 
L 357.170989 286.351538 
L 366.964092 281.733728 
L 376.268799 276.383045 
L 385.046875 270.321972 
L 393.262248 263.578958 
L 400.881161 256.188212 
L 407.872304 248.189437 
L 414.206951 239.627507 
L 419.85907 230.552106 
L 424.805436 221.017315 
L 429.025723 211.081153 
L 432.502589 200.805088 
L 435.221748 190.253518 
L 437.172024 179.493211 
L 438.345405 168.592737 
L 438.737069 157.621875 
" style="fill:none;stroke:#2ca02c;stroke-linecap:square;stroke-width:1.5;"/>
   </g>
   <g id="line2d_16">
    <path clip-path="url(#p0931099960)" d="M 438.737069 157.621875 
L 438.717466 39.583094 
L 438.65851 35.433032 
L 438.559744 32.951979 
L 438.420397 31.176183 
L 438.239347 29.797143 
L 438.015091 28.675564 
L 437.745683 27.736404 
L 437.428661 26.934546 
L 437.06094 26.240734 
L 436.638673 25.63493 
L 436.157052 25.102827 
L 435.610038 24.633874 
L 434.989972 24.220089 
L 434.287008 23.855314 
L 433.488263 23.534726 
L 432.576505 23.254499 
L 431.528006 23.011581 
L 430.308886 22.803523 
L 428.868408 22.628366 
L 427.125573 22.484552 
L 424.938858 22.370861 
L 422.024677 22.286366 
L 417.662182 22.230397 
L 408.610765 22.202519 
L 87.609547 22.202519 
L 78.55813 22.230397 
L 74.195636 22.286366 
L 71.281455 22.370861 
L 69.09474 22.484552 
L 67.351904 22.628366 
L 65.911426 22.803523 
L 64.692306 23.011581 
L 63.643807 23.254499 
L 62.732049 23.534726 
L 61.933305 23.855314 
L 61.23034 24.220089 
L 60.610274 24.633874 
L 60.063261 25.102827 
L 59.58164 25.63493 
L 59.159372 26.240734 
L 58.791652 26.934546 
L 58.474629 27.736404 
L 58.205221 28.675564 
L 57.980965 29.797143 
L 57.799916 31.176183 
L 57.660568 32.951979 
L 57.561803 35.433032 
L 57.502846 39.583094 
L 57.483244 135.940219 
L 57.502846 275.660656 
L 57.561803 279.810718 
L 57.660568 282.291771 
L 57.799916 284.067567 
L 57.980965 285.446607 
L 58.205221 286.568186 
L 58.474629 287.507346 
L 58.791652 288.309204 
L 59.159372 289.003016 
L 59.58164 289.60882 
L 60.063261 290.140923 
L 60.610274 290.609876 
L 61.23034 291.023661 
L 61.933305 291.388436 
L 62.732049 291.709024 
L 63.643807 291.989251 
L 64.692306 292.232169 
L 65.911426 292.440227 
L 67.351904 292.615384 
L 69.09474 292.759198 
L 71.281455 292.872889 
L 74.195636 292.957384 
L 78.55813 293.013353 
L 87.609547 293.041231 
L 408.610765 293.041231 
L 417.662182 293.013353 
L 422.024677 292.957384 
L 424.938858 292.872889 
L 427.125573 292.759198 
L 428.868408 292.615384 
L 430.308886 292.440227 
L 431.528006 292.232169 
L 432.576505 291.989251 
L 433.488263 291.709024 
L 434.287008 291.388436 
L 434.989972 291.023661 
L 435.610038 290.609876 
L 436.157052 290.140923 
L 436.638673 289.60882 
L 437.06094 289.003016 
L 437.428661 288.309204 
L 437.745683 287.507346 
L 438.015091 286.568186 
L 438.239347 285.446607 
L 438.420397 284.067567 
L 438.559744 282.291771 
L 438.65851 279.810718 
L 438.717466 275.660656 
L 438.737069 180.068133 
" style="fill:none;stroke:#d62728;stroke-linecap:square;stroke-width:1.5;"/>
   </g>
   <g id="patch_3">
    <path d="M 38.420552 312.24351 
L 38.420552 3.00024 
" style="fill:none;stroke:#000000;stroke-linecap:square;stroke-linejoin:miter;stroke-width:0.8;"/>
   </g>
   <g id="patch_4">
    <path d="M 457.79976 312.24351 
L 457.79976 3.00024 
" style="fill:none;stroke:#000000;stroke-linecap:square;stroke-linejoin:miter;stroke-width:0.8;"/>
   </g>
   <g id="patch_5">
    <path d="M 38.420552 312.24351 
L 457.79976 312.24351 
" style="fill:none;stroke:#000000;stroke-linecap:square;stroke-linejoin:miter;stroke-width:0.8;"/>
   </g>
   <g id="patch_6">
    <path d="M 38.420552 3.00024 
L 457.79976 3.00024 
" style="fill:none;stroke:#000000;stroke-linecap:square;stroke-linejoin:miter;stroke-width:0.8;"/>
   </g>
   <g id="legend_1">
    <g id="patch_7">
     <path d="M 192.535156 188.478125 
L 303.685156 188.478125 
Q 305.685156 188.478125 305.685156 186.478125 
L 305.685156 128.765625 
Q 305.685156 126.765625 303.685156 126.765625 
L 192.535156 126.765625 
Q 190.535156 126.765625 190.535156 128.765625 
L 190.535156 186.478125 
Q 190.535156 188.478125 192.535156 188.478125 
z
" style="fill:#ffffff;opacity:0.8;stroke:#cccccc;stroke-linejoin:miter;"/>
    </g>
    <g id="line2d_17">
     <path d="M 194.535156 134.864062 
L 214.535156 134.864062 
" style="fill:none;stroke:#1f77b4;stroke-linecap:square;stroke-width:1.5;"/>
    </g>
    <g id="line2d_18"/>
    <g id="text_15">
     <!-- ellipse -->
     <g transform="translate(222.535156 138.364062)scale(0.1 -0.1)">
      <defs>
       <path d="M 3597 1894 
L 3597 1613 
L 953 1613 
Q 991 1019 1311 708 
Q 1631 397 2203 397 
Q 2534 397 2845 478 
Q 3156 559 3463 722 
L 3463 178 
Q 3153 47 2828 -22 
Q 2503 -91 2169 -91 
Q 1331 -91 842 396 
Q 353 884 353 1716 
Q 353 2575 817 3079 
Q 1281 3584 2069 3584 
Q 2775 3584 3186 3129 
Q 3597 2675 3597 1894 
z
M 3022 2063 
Q 3016 2534 2758 2815 
Q 2500 3097 2075 3097 
Q 1594 3097 1305 2825 
Q 1016 2553 972 2059 
L 3022 2063 
z
" id="DejaVuSans-65" transform="scale(0.015625)"/>
       <path d="M 603 4863 
L 1178 4863 
L 1178 0 
L 603 0 
L 603 4863 
z
" id="DejaVuSans-6c" transform="scale(0.015625)"/>
       <path d="M 603 3500 
L 1178 3500 
L 1178 0 
L 603 0 
L 603 3500 
z
M 603 4863 
L 1178 4863 
L 1178 4134 
L 603 4134 
L 603 4863 
z
" id="DejaVuSans-69" transform="scale(0.015625)"/>
       <path d="M 1159 525 
L 1159 -1331 
L 581 -1331 
L 581 3500 
L 1159 3500 
L 1159 2969 
Q 1341 3281 1617 3432 
Q 1894 3584 2278 3584 
Q 2916 3584 3314 3078 
Q 3713 2572 3713 1747 
Q 3713 922 3314 415 
Q 2916 -91 2278 -91 
Q 1894 -91 1617 61 
Q 1341 213 1159 525 
z
M 3116 1747 
Q 3116 2381 2855 2742 
Q 2594 3103 2138 3103 
Q 1681 3103 1420 2742 
Q 1159 2381 1159 1747 
Q 1159 1113 1420 752 
Q 1681 391 2138 391 
Q 2594 391 2855 752 
Q 3116 1113 3116 1747 
z
" id="DejaVuSans-70" transform="scale(0.015625)"/>
       <path d="M 2834 3397 
L 2834 2853 
Q 2591 2978 2328 3040 
Q 2066 3103 1784 3103 
Q 1356 3103 1142 2972 
Q 928 2841 928 2578 
Q 928 2378 1081 2264 
Q 1234 2150 1697 2047 
L 1894 2003 
Q 2506 1872 2764 1633 
Q 3022 1394 3022 966 
Q 3022 478 2636 193 
Q 2250 -91 1575 -91 
Q 1294 -91 989 -36 
Q 684 19 347 128 
L 347 722 
Q 666 556 975 473 
Q 1284 391 1588 391 
Q 1994 391 2212 530 
Q 2431 669 2431 922 
Q 2431 1156 2273 1281 
Q 2116 1406 1581 1522 
L 1381 1569 
Q 847 1681 609 1914 
Q 372 2147 372 2553 
Q 372 3047 722 3315 
Q 1072 3584 1716 3584 
Q 2034 3584 2315 3537 
Q 2597 3491 2834 3397 
z
" id="DejaVuSans-73" transform="scale(0.015625)"/>
      </defs>
      <use xlink:href="#DejaVuSans-65"/>
      <use x="61.523438" xlink:href="#DejaVuSans-6c"/>
      <use x="89.306641" xlink:href="#DejaVuSans-6c"/>
      <use x="117.089844" xlink:href="#DejaVuSans-69"/>
      <use x="144.873047" xlink:href="#DejaVuSans-70"/>
      <use x="208.349609" xlink:href="#DejaVuSans-73"/>
      <use x="260.449219" xlink:href="#DejaVuSans-65"/>
     </g>
    </g>
    <g id="line2d_19">
     <path d="M 194.535156 149.542187 
L 214.535156 149.542187 
" style="fill:none;stroke:#ff7f0e;stroke-linecap:square;stroke-width:1.5;"/>
    </g>
    <g id="line2d_20"/>
    <g id="text_16">
     <!-- squircle, n=4 -->
     <g transform="translate(222.535156 153.042187)scale(0.1 -0.1)">
      <defs>
       <path d="M 947 1747 
Q 947 1113 1208 752 
Q 1469 391 1925 391 
Q 2381 391 2643 752 
Q 2906 1113 2906 1747 
Q 2906 2381 2643 2742 
Q 2381 3103 1925 3103 
Q 1469 3103 1208 2742 
Q 947 2381 947 1747 
z
M 2906 525 
Q 2725 213 2448 61 
Q 2172 -91 1784 -91 
Q 1150 -91 751 415 
Q 353 922 353 1747 
Q 353 2572 751 3078 
Q 1150 3584 1784 3584 
Q 2172 3584 2448 3432 
Q 2725 3281 2906 2969 
L 2906 3500 
L 3481 3500 
L 3481 -1331 
L 2906 -1331 
L 2906 525 
z
" id="DejaVuSans-71" transform="scale(0.015625)"/>
       <path d="M 544 1381 
L 544 3500 
L 1119 3500 
L 1119 1403 
Q 1119 906 1312 657 
Q 1506 409 1894 409 
Q 2359 409 2629 706 
Q 2900 1003 2900 1516 
L 2900 3500 
L 3475 3500 
L 3475 0 
L 2900 0 
L 2900 538 
Q 2691 219 2414 64 
Q 2138 -91 1772 -91 
Q 1169 -91 856 284 
Q 544 659 544 1381 
z
M 1991 3584 
L 1991 3584 
z
" id="DejaVuSans-75" transform="scale(0.015625)"/>
       <path d="M 2631 2963 
Q 2534 3019 2420 3045 
Q 2306 3072 2169 3072 
Q 1681 3072 1420 2755 
Q 1159 2438 1159 1844 
L 1159 0 
L 581 0 
L 581 3500 
L 1159 3500 
L 1159 2956 
Q 1341 3275 1631 3429 
Q 1922 3584 2338 3584 
Q 2397 3584 2469 3576 
Q 2541 3569 2628 3553 
L 2631 2963 
z
" id="DejaVuSans-72" transform="scale(0.015625)"/>
       <path d="M 3122 3366 
L 3122 2828 
Q 2878 2963 2633 3030 
Q 2388 3097 2138 3097 
Q 1578 3097 1268 2742 
Q 959 2388 959 1747 
Q 959 1106 1268 751 
Q 1578 397 2138 397 
Q 2388 397 2633 464 
Q 2878 531 3122 666 
L 3122 134 
Q 2881 22 2623 -34 
Q 2366 -91 2075 -91 
Q 1284 -91 818 406 
Q 353 903 353 1747 
Q 353 2603 823 3093 
Q 1294 3584 2113 3584 
Q 2378 3584 2631 3529 
Q 2884 3475 3122 3366 
z
" id="DejaVuSans-63" transform="scale(0.015625)"/>
       <path d="M 750 794 
L 1409 794 
L 1409 256 
L 897 -744 
L 494 -744 
L 750 256 
L 750 794 
z
" id="DejaVuSans-2c" transform="scale(0.015625)"/>
       <path id="DejaVuSans-20" transform="scale(0.015625)"/>
       <path d="M 3513 2113 
L 3513 0 
L 2938 0 
L 2938 2094 
Q 2938 2591 2744 2837 
Q 2550 3084 2163 3084 
Q 1697 3084 1428 2787 
Q 1159 2491 1159 1978 
L 1159 0 
L 581 0 
L 581 3500 
L 1159 3500 
L 1159 2956 
Q 1366 3272 1645 3428 
Q 1925 3584 2291 3584 
Q 2894 3584 3203 3211 
Q 3513 2838 3513 2113 
z
" id="DejaVuSans-6e" transform="scale(0.015625)"/>
       <path d="M 678 2906 
L 4684 2906 
L 4684 2381 
L 678 2381 
L 678 2906 
z
M 678 1631 
L 4684 1631 
L 4684 1100 
L 678 1100 
L 678 1631 
z
" id="DejaVuSans-3d" transform="scale(0.015625)"/>
       <path d="M 2419 4116 
L 825 1625 
L 2419 1625 
L 2419 4116 
z
M 2253 4666 
L 3047 4666 
L 3047 1625 
L 3713 1625 
L 3713 1100 
L 3047 1100 
L 3047 0 
L 2419 0 
L 2419 1100 
L 313 1100 
L 313 1709 
L 2253 4666 
z
" id="DejaVuSans-34" transform="scale(0.015625)"/>
      </defs>
      <use xlink:href="#DejaVuSans-73"/>
      <use x="52.099609" xlink:href="#DejaVuSans-71"/>
      <use x="115.576172" xlink:href="#DejaVuSans-75"/>
      <use x="178.955078" xlink:href="#DejaVuSans-69"/>
      <use x="206.738281" xlink:href="#DejaVuSans-72"/>
      <use x="245.601562" xlink:href="#DejaVuSans-63"/>
      <use x="300.582031" xlink:href="#DejaVuSans-6c"/>
      <use x="328.365234" xlink:href="#DejaVuSans-65"/>
      <use x="389.888672" xlink:href="#DejaVuSans-2c"/>
      <use x="421.675781" xlink:href="#DejaVuSans-20"/>
      <use x="453.462891" xlink:href="#DejaVuSans-6e"/>
      <use x="516.841797" xlink:href="#DejaVuSans-3d"/>
      <use x="600.630859" xlink:href="#DejaVuSans-34"/>
     </g>
    </g>
    <g id="line2d_21">
     <path d="M 194.535156 164.220312 
L 214.535156 164.220312 
" style="fill:none;stroke:#2ca02c;stroke-linecap:square;stroke-width:1.5;"/>
    </g>
    <g id="line2d_22"/>
    <g id="text_17">
     <!-- egg, k=0.2 -->
     <g transform="translate(222.535156 167.720312)scale(0.1 -0.1)">
      <defs>
       <path d="M 2906 1791 
Q 2906 2416 2648 2759 
Q 2391 3103 1925 3103 
Q 1463 3103 1205 2759 
Q 947 2416 947 1791 
Q 947 1169 1205 825 
Q 1463 481 1925 481 
Q 2391 481 2648 825 
Q 2906 1169 2906 1791 
z
M 3481 434 
Q 3481 -459 3084 -895 
Q 2688 -1331 1869 -1331 
Q 1566 -1331 1297 -1286 
Q 1028 -1241 775 -1147 
L 775 -588 
Q 1028 -725 1275 -790 
Q 1522 -856 1778 -856 
Q 2344 -856 2625 -561 
Q 2906 -266 2906 331 
L 2906 616 
Q 2728 306 2450 153 
Q 2172 0 1784 0 
Q 1141 0 747 490 
Q 353 981 353 1791 
Q 353 2603 747 3093 
Q 1141 3584 1784 3584 
Q 2172 3584 2450 3431 
Q 2728 3278 2906 2969 
L 2906 3500 
L 3481 3500 
L 3481 434 
z
" id="DejaVuSans-67" transform="scale(0.015625)"/>
       <path d="M 581 4863 
L 1159 4863 
L 1159 1991 
L 2875 3500 
L 3609 3500 
L 1753 1863 
L 3688 0 
L 2938 0 
L 1159 1709 
L 1159 0 
L 581 0 
L 581 4863 
z
" id="DejaVuSans-6b" transform="scale(0.015625)"/>
       <path d="M 684 794 
L 1344 794 
L 1344 0 
L 684 0 
L 684 794 
z
" id="DejaVuSans-2e" transform="scale(0.015625)"/>
      </defs>
      <use xlink:href="#DejaVuSans-65"/>
      <use x="61.523438" xlink:href="#DejaVuSans-67"/>
      <use x="125" xlink:href="#DejaVuSans-67"/>
      <use x="188.476562" xlink:href="#DejaVuSans-2c"/>
      <use x="220.263672" xlink:href="#DejaVuSans-20"/>
      <use x="252.050781" xlink:href="#DejaVuSans-6b"/>
      <use x="309.960938" xlink:href="#DejaVuSans-3d"/>
      <use x="393.75" xlink:href="#DejaVuSans-30"/>
      <use x="457.373047" xlink:href="#DejaVuSans-2e"/>
      <use x="489.160156" xlink:href="#DejaVuSans-32"/>
     </g>
    </g>
    <g id="line2d_23">
     <path d="M 194.535156 178.898438 
L 214.535156 178.898438 
" style="fill:none;stroke:#d62728;stroke-linecap:square;stroke-width:1.5;"/>
    </g>
    <g id="line2d_24"/>
    <g id="text_18">
     <!-- squircle, n=100 -->
     <g transform="translate(222.535156 182.398438)scale(0.1 -0.1)">
      <use xlink:href="#DejaVuSans-73"/>
      <use x="52.099609" xlink:href="#DejaVuSans-71"/>
      <use x="115.576172" xlink:href="#DejaVuSans-75"/>
      <use x="178.955078" xlink:href="#DejaVuSans-69"/>
      <use x="206.738281" xlink:href="#DejaVuSans-72"/>
      <use x="245.601562" xlink:href="#DejaVuSans-63"/>
      <use x="300.582031" xlink:href="#DejaVuSans-6c"/>
      <use x="328.365234" xlink:href="#DejaVuSans-65"/>
      <use x="389.888672" xlink:href="#DejaVuSans-2c"/>
      <use x="421.675781" xlink:href="#DejaVuSans-20"/>
      <use x="453.462891" xlink:href="#DejaVuSans-6e"/>
      <use x="516.841797" xlink:href="#DejaVuSans-3d"/>
      <use x="600.630859" xlink:href="#DejaVuSans-31"/>
      <use x="664.253906" xlink:href="#DejaVuSans-30"/>
      <use x="727.876953" xlink:href="#DejaVuSans-30"/>
     </g>
    </g>
   </g>
  </g>
 </g>
 <defs>
  <clipPath id="p0931099960">
   <rect height="309.24327" width="419.379208" x="38.420552" y="3.00024"/>
  </clipPath>
 </defs>
</svg>
